<?xml version="1.0" standalone="no"?>
<!DOCTYPE svg PUBLIC "-//W3C//DTD SVG 20010904//EN"
 "http://www.w3.org/TR/2001/REC-SVG-20010904/DTD/svg10.dtd">
<svg version="1.0" xmlns="http://www.w3.org/2000/svg"
 width="1259.000000pt" height="1259.000000pt" viewBox="0 0 1259.000000 1259.000000"
 preserveAspectRatio="xMidYMid meet">
<metadata>
Created by potrace 1.14, written by Peter Selinger 2001-2017
</metadata>
<g transform="translate(0.000000,1259.000000) scale(0.100000,-0.100000)"
fill="#000000" stroke="none">
<path d="M10153 8826 l-24 -21 -1 -336 -1 -336 -301 -1 c-165 0 -309 -1 -319
-1 -10 -1 -28 -12 -41 -26 -23 -24 -23 -30 -22 -210 1 -178 2 -185 24 -207 22
-23 23 -23 340 -23 l317 0 1 -340 2 -339 26 -23 c25 -21 33 -22 216 -21 173 1
193 3 213 20 22 19 22 24 27 361 l5 342 305 0 c168 1 315 4 328 9 39 13 44 39
44 229 -1 178 -1 181 -26 205 l-24 25 -316 0 -316 0 0 331 c-1 346 -1 350 -45
373 -12 6 -96 11 -203 11 -173 0 -185 -2 -209 -22z"/>
<path d="M9262 7354 c-164 -34 -286 -141 -343 -299 -18 -48 -22 -82 -22 -170
0 -124 19 -191 72 -256 39 -47 141 -99 271 -139 211 -65 263 -101 263 -181 0
-142 -212 -181 -391 -71 -96 58 -104 61 -123 52 -9 -5 -35 -45 -57 -87 -22
-43 -47 -91 -56 -108 -21 -41 -20 -81 4 -105 30 -30 130 -77 227 -106 76 -23
107 -27 223 -27 202 -1 316 35 425 135 101 92 154 250 142 415 -14 185 -115
286 -365 364 -53 17 -116 38 -138 46 -56 20 -105 71 -106 111 -3 98 123 151
254 107 34 -12 75 -29 90 -39 50 -33 68 -20 125 89 58 111 65 151 31 182 -77
71 -373 120 -526 87z"/>
<path d="M2000 7332 c-43 -5 -79 -23 -85 -43 -5 -15 -9 -1007 -5 -1321 0 -15
10 -39 23 -53 22 -26 25 -26 155 -27 145 -1 175 7 190 51 4 14 8 205 7 424 l0
398 25 -29 c14 -16 70 -87 126 -158 257 -330 429 -549 434 -554 3 -3 23 -29
44 -58 21 -29 47 -57 58 -63 23 -12 291 -16 326 -5 51 17 51 12 51 722 0 397
-4 665 -10 676 -18 33 -50 41 -169 40 -63 0 -123 -1 -133 -1 -10 -1 -29 -13
-42 -27 l-24 -26 0 -405 c0 -223 -1 -406 -3 -408 -2 -1 -84 101 -183 228 -401
514 -487 622 -502 630 -14 8 -232 15 -283 9z"/>
<path d="M3659 7327 c-54 -14 -55 -23 -53 -514 1 -246 4 -464 8 -483 37 -204
103 -308 244 -387 119 -67 212 -88 382 -87 201 2 329 51 456 174 92 90 144
195 160 325 3 28 6 247 7 488 l0 438 -26 26 c-25 25 -29 26 -157 26 -147 0
-175 -8 -186 -57 -4 -17 -6 -206 -6 -421 0 -406 -6 -484 -42 -554 -38 -73
-118 -114 -216 -114 -104 1 -173 43 -222 135 -22 43 -22 47 -24 503 l-2 460
-27 22 c-14 13 -33 23 -41 24 -76 5 -230 2 -255 -4z"/>
<path d="M5040 7327 c-46 -12 -57 -45 -55 -171 2 -144 2 -145 163 -144 64 0
123 -1 130 -1 9 -1 12 -115 12 -536 l0 -536 25 -24 c13 -14 34 -25 47 -26 220
-7 280 3 295 49 5 15 9 262 9 550 -1 515 -1 522 19 523 11 1 71 1 133 1 156 0
156 0 158 152 2 108 0 117 -22 141 -12 14 -31 25 -41 26 -115 5 -850 2 -873
-4z"/>
<path d="M6172 7329 c-81 -11 -77 32 -78 -709 -1 -712 -1 -713 53 -726 45 -12
245 -9 274 3 47 20 50 37 52 295 1 174 4 236 11 224 6 -9 50 -77 97 -149 47
-73 119 -183 159 -245 40 -62 82 -118 93 -123 12 -7 84 -11 175 -11 l156 -1
23 27 c46 53 38 68 -157 322 -99 128 -180 235 -180 237 0 3 27 14 60 26 164
60 254 209 245 407 -10 234 -159 396 -388 420 -78 9 -537 11 -595 3z m430
-293 c25 -2 64 -14 86 -25 76 -39 104 -149 58 -234 -33 -61 -86 -85 -201 -89
l-70 -3 -1 175 -1 175 31 5 c17 4 36 5 41 4 6 -2 31 -5 57 -8z"/>
<path d="M7869 7332 c-15 -2 -34 -11 -43 -21 -9 -10 -68 -153 -132 -317 -63
-165 -132 -344 -153 -399 -54 -137 -202 -522 -217 -565 -19 -52 -17 -86 9
-116 23 -26 24 -26 160 -27 95 0 145 4 162 13 17 9 36 43 69 124 l44 111 258
0 257 0 41 -109 c27 -69 49 -114 63 -123 17 -11 57 -15 155 -16 147 0 172 7
192 55 14 32 17 21 -85 293 -17 44 -36 96 -43 115 -61 165 -350 929 -357 942
-18 34 -50 41 -203 42 -83 0 -163 0 -177 -2z m237 -685 c39 -117 70 -214 68
-216 -6 -7 -283 -5 -290 2 -4 4 26 103 67 221 40 118 76 213 79 210 3 -3 37
-101 76 -217z"/>
<path d="M3055 5711 c-141 -40 -259 -137 -319 -264 -38 -79 -45 -103 -51 -193
-16 -241 172 -475 410 -511 136 -21 268 7 369 76 169 118 247 306 209 506 -33
175 -148 309 -326 377 -71 28 -211 32 -292 9z m279 -156 c298 -151 257 -585
-63 -670 -178 -47 -375 68 -429 250 -15 53 -8 181 13 230 43 100 136 184 232
211 76 22 181 13 247 -21z"/>
<path d="M6645 5720 c-175 -36 -308 -152 -375 -325 -19 -49 -23 -80 -23 -165
-1 -93 3 -113 28 -175 15 -38 36 -81 47 -95 53 -71 67 -86 121 -126 116 -86
260 -118 403 -88 93 20 179 67 250 138 95 95 143 208 145 341 5 314 -289 558
-596 495z m249 -166 c62 -30 133 -100 164 -160 60 -118 45 -272 -36 -379 -182
-241 -558 -155 -625 143 -41 181 80 376 260 422 67 17 174 5 237 -26z"/>
<path d="M7940 5714 c-253 -64 -415 -313 -371 -568 42 -240 245 -409 490 -408
47 0 93 2 101 5 8 2 29 7 45 12 116 31 248 143 304 257 94 192 55 421 -97 572
-123 122 -304 172 -472 130z m272 -159 c72 -36 152 -122 178 -193 41 -108 27
-233 -36 -327 -98 -148 -281 -201 -436 -127 -193 90 -266 314 -163 497 72 129
181 188 332 180 52 -2 87 -11 125 -30z"/>
<path d="M1885 5696 c-2 -12 -3 -228 -2 -481 l2 -460 70 -3 70 -3 0 196 c0
116 4 199 9 203 5 3 41 7 80 8 175 7 284 104 291 258 7 144 -74 257 -208 288
-23 6 -102 11 -175 12 -127 3 -133 2 -137 -18z m306 -142 c44 -19 71 -62 71
-117 2 -94 -69 -151 -179 -145 l-58 3 -1 130 c0 72 4 136 9 142 12 16 109 8
158 -13z"/>
<path d="M4051 5233 l0 -483 73 0 73 0 0 202 0 202 75 2 c106 2 171 27 228 83
59 59 79 115 75 209 -4 84 -38 157 -94 201 -68 52 -121 64 -298 66 l-132 1 0
-483z m314 321 c43 -20 67 -62 68 -118 1 -90 -50 -136 -164 -144 -67 -5 -69
-4 -70 19 -1 34 -1 198 0 235 l1 31 64 -3 c36 -1 81 -10 101 -20z"/>
<path d="M5472 5232 l-1 -483 72 3 72 3 1 216 c0 118 4 220 7 226 5 7 56 11
147 10 77 0 142 2 145 5 10 9 12 107 3 121 -5 8 -49 12 -154 12 l-147 0 0 108
c1 60 4 111 8 115 4 4 68 8 143 8 181 2 167 -1 165 36 -1 18 -2 49 -2 68 l-1
36 -229 -1 -229 0 0 -483z"/>
<path d="M8930 5232 l0 -484 173 4 c144 4 183 9 236 27 153 53 277 190 306
336 56 295 -107 546 -385 591 -25 4 -109 8 -187 9 l-143 1 0 -484z m343 324
c103 -30 177 -97 218 -196 23 -56 18 -214 -9 -272 -50 -112 -152 -182 -288
-196 -131 -15 -119 -48 -119 339 -1 191 3 337 9 340 15 11 132 1 189 -15z"/>
</g>
</svg>
