<svg width="3428" height="3026" viewBox="0 0 3428 3026" fill="none" xmlns="http://www.w3.org/2000/svg">
<path d="M1678.37 3025.35C2572.68 3025.35 3297.67 2922.04 3297.67 2794.59C3297.67 2667.14 2572.68 2563.82 1678.37 2563.82C784.056 2563.82 59.0723 2667.14 59.0723 2794.59C59.0723 2922.04 784.056 3025.35 1678.37 3025.35Z" fill="#92E3A9"/>
<path opacity="0.5" d="M1678.37 3025.35C2572.68 3025.35 3297.67 2922.04 3297.67 2794.59C3297.67 2667.14 2572.68 2563.82 1678.37 2563.82C784.056 2563.82 59.0723 2667.14 59.0723 2794.59C59.0723 2922.04 784.056 3025.35 1678.37 3025.35Z" fill="white"/>
<path d="M3346.48 1920.64C3319.34 1927.83 3294.89 1942.79 3276.14 1963.69C3259.75 1981.21 3245.49 2000.6 3233.65 2021.46C3225.65 2034.67 3219.01 2048.35 3212.61 2062.19C3208.45 2071.23 3205.25 2082.52 3201.33 2092.84C3195.65 2102.04 3189.96 2111.48 3185.32 2120.28C3202.29 2059.07 3257.34 1946.41 3258.06 1914.4C3259.18 1879.51 3226.05 1931.37 3207.17 2002.42C3196.61 2042.6 3188.59 2083.41 3183.16 2124.61C3181.24 2128.29 3179.56 2131.73 3178.04 2135.01C3174.6 2142.13 3168.76 2154.21 3161 2170.06C3178.04 2118.04 3184.2 2056.35 3173.96 2048.67C3159.08 2037.63 3153.72 2064.67 3153.8 2114.76C3152.34 2150.53 3146.45 2185.98 3136.27 2220.31C3126.91 2238.79 3116.43 2259.19 3105.23 2280.72C3116.99 2243.27 3123.79 2189.34 3130.19 2148.93C3139.55 2090.12 3135.55 2071.79 3116.51 2100.04C3097.47 2128.29 3100.51 2169.25 3105.31 2219.35C3106.92 2251.36 3101.12 2283.32 3088.34 2312.72C3074.02 2339.93 3058.82 2368.1 3043.45 2395.78C3056.49 2367.41 3064.73 2337.07 3067.86 2306C3074.5 2238.07 3065.78 2175.66 3050.02 2193.34C3034.25 2211.02 3043.61 2258.31 3041.53 2315.85C3040.39 2350.78 3036.46 2385.56 3029.77 2419.87L3024.97 2428.35C3031.3 2399.14 3032.97 2369.11 3029.93 2339.37C3033.05 2328.01 3031.93 2320.73 3028.17 2317.29C3027.61 2304.48 3028.65 2285.28 3023.21 2275.44C3009.45 2250.87 2994.4 2283.92 2994.24 2296.96C2994.26 2306.95 2994.95 2316.92 2996.32 2326.81C2990.96 2331.79 2986.33 2337.5 2982.56 2343.77C2980.48 2347.29 2978.32 2351.13 2976 2355.37C2976 2351.29 2976.48 2346.89 2976.64 2342.97C2977.36 2331.89 2975.04 2320.82 2969.92 2310.96C2978.18 2294.47 2984.13 2276.91 2987.6 2258.79C2989.21 2252.8 2988.79 2246.44 2986.4 2240.71C2985.61 2238.94 2984.47 2237.35 2983.06 2236.02C2981.64 2234.69 2979.98 2233.66 2978.17 2232.97C2976.36 2232.29 2974.42 2231.97 2972.49 2232.03C2970.55 2232.1 2968.64 2232.55 2966.88 2233.35C2966.03 2233.75 2965.2 2234.21 2964.4 2234.71C2938.31 2248.55 2931.35 2281.84 2928.31 2308.56C2925.44 2331.62 2920.79 2354.41 2914.39 2376.74C2909.03 2396.82 2904.31 2414.99 2901.26 2427.63C2899.19 2414.14 2896.36 2400.79 2892.78 2387.62C2889.82 2376.66 2887.02 2366.1 2884.3 2355.61C2881.79 2318.54 2889.05 2281.46 2905.35 2248.07C2936.23 2184.54 2958.56 2154.61 2937.35 2153.57C2916.15 2152.53 2884.86 2185.58 2880.46 2237.91C2877.15 2269.62 2876.48 2301.55 2878.46 2333.37C2871.66 2309.36 2864.94 2286.08 2857.98 2262.71C2852.59 2236.91 2853.92 2210.16 2861.82 2185.02C2876.38 2141.89 2919.91 2064.99 2897.02 2071.31C2874.14 2077.64 2846.61 2121.81 2843.49 2168.85C2842.66 2193.44 2845.36 2218.01 2851.49 2241.83C2846.53 2225.51 2841.2 2208.54 2835.49 2190.94C2833.09 2182.94 2830.53 2174.94 2828.05 2166.93C2828.15 2165.49 2827.93 2164.04 2827.41 2162.69C2824.22 2138.38 2828.61 2113.68 2839.97 2091.96C2861.9 2052.59 2902.63 2018.74 2878.62 2009.7C2854.62 2000.66 2818.37 2064.67 2816.21 2096.68C2815.72 2108.86 2816.69 2121.06 2819.09 2133.01L2816.13 2125.57C2810.93 2107.16 2805.89 2089 2801.48 2072.91C2800.54 2049.17 2805.31 2025.54 2815.41 2004.02C2836.85 1954.89 2864.06 1898.8 2836.29 1913.04C2813.89 1924.64 2789.72 1990.82 2794.44 2046.75C2792.6 2039.39 2790.84 2033.15 2789.48 2028.03C2785.88 1996.02 2779 1920.64 2789.48 1875.99C2796.36 1846.07 2807.65 1817.66 2811.09 1786.86C2811.78 1783.44 2811.53 1779.9 2810.37 1776.61C2802.84 1758.05 2778.36 1794.22 2774.68 1800.14C2759.73 1823.96 2752.08 1851.64 2752.67 1879.75C2752.69 1903.72 2755.54 1927.59 2761.16 1950.89C2764.57 1965.77 2768.7 1980.5 2773.56 1995.06C2776.6 2004.42 2782.04 2014.9 2786.2 2025.06C2788.28 2035.71 2790.6 2046.51 2793.08 2056.19C2763.72 1999.38 2726.51 1879.43 2705.7 1855.03C2682.74 1828.86 2693.86 1889.76 2728.27 1954.17C2748.05 1990.96 2770.13 2026.48 2794.36 2060.51C2795.48 2064.51 2796.6 2068.51 2797.72 2071.63C2800.04 2079.16 2804.04 2092.04 2809.17 2108.92C2785.8 2059.55 2748.51 2009.94 2735.79 2011.3C2717.47 2013.38 2732.03 2036.83 2766.2 2073.4C2789.39 2100.52 2809.15 2130.4 2825.01 2162.37C2830.77 2182.38 2837.09 2204.3 2843.57 2227.67C2826.53 2192.3 2794.68 2148.21 2771.56 2114.36C2738.27 2064.99 2722.83 2054.27 2728.19 2087.88C2733.55 2121.49 2763.88 2149.25 2801.56 2182.78C2824.47 2205.2 2841.93 2232.57 2852.61 2262.79C2860.62 2292.4 2868.62 2323.37 2876.62 2354.17C2866.79 2324.5 2852.14 2296.66 2833.25 2271.76C2791.64 2217.43 2742.67 2177.82 2743.23 2201.42C2743.79 2225.03 2782.84 2253.35 2820.77 2296.56C2843.78 2322.8 2864.57 2350.9 2882.94 2380.58C2883.74 2383.62 2884.46 2386.74 2885.18 2389.78C2868.22 2358.65 2841.09 2333.29 2814.77 2309.76C2805.48 2301.28 2791.48 2283.44 2779.56 2279.6C2752.83 2271.12 2764.36 2305.52 2773.16 2315.13C2801.72 2346.33 2841.97 2365.62 2868.38 2398.5C2878.34 2410.86 2887.25 2424.03 2895.02 2437.87C2896.86 2448.67 2898.22 2458.76 2899.34 2468.2C2889.21 2458.6 2878.54 2449.53 2867.34 2440.99C2835.33 2419.31 2816.37 2389.46 2791.48 2360.98C2784.04 2352.49 2771.4 2341.93 2759.48 2341.37C2742.51 2340.65 2737.47 2358.41 2742.51 2372.42C2762.12 2430.11 2835.89 2432.67 2879.18 2462.68C2887.08 2467.73 2894.38 2473.66 2900.94 2480.36C2902.78 2498.17 2903.27 2516.09 2902.39 2533.97H2803.16V2575.34H2832.61L2856.62 2722.57H3054.98L3078.98 2575.34H3108.43V2533.97H2959.68C2966.48 2525.49 2973.76 2517.01 2981.12 2507.33L3012.49 2508.29C3012.49 2508.29 3121.55 2513.01 3161.56 2491.24C3201.57 2469.48 3165.88 2448.83 3127.55 2459.96C3089.22 2471.08 3014.01 2504.76 2997.36 2504.76L2983.28 2504.36C2991.28 2494.2 2999.29 2483.72 3006.33 2473C3036.35 2465.45 3065.88 2456.05 3094.75 2444.83C3126.03 2432.43 3162.68 2422.43 3189.32 2401.38C3194.5 2397.97 3198.43 2392.98 3200.53 2387.14C3201.74 2383.43 3201.44 2379.38 3199.69 2375.89C3197.93 2372.4 3194.87 2369.74 3191.17 2368.5C3190.3 2368.21 3189.42 2367.99 3188.52 2367.86C3159.96 2359.85 3132.11 2379.7 3112.11 2397.14C3094.5 2412.05 3075.78 2425.59 3056.1 2437.63C3038.41 2448.51 3022.57 2458.76 3011.85 2465.72C3019.85 2453.95 3027.05 2442.19 3033.21 2430.75C3038.57 2420.67 3043.77 2411.07 3048.66 2401.7C3072.22 2373.03 3102.82 2350.97 3137.47 2337.69C3203.41 2312.24 3239.98 2305.68 3225.49 2290.4C3211.01 2275.12 3165.16 2277.92 3126.27 2313.21C3102.16 2334.11 3079.84 2357 3059.54 2381.62C3071.14 2359.21 3082.02 2337.77 3092.82 2316.01C3106.57 2293.45 3125.85 2274.77 3148.84 2261.75C3188.84 2240.31 3273.02 2213.74 3252.14 2202.78C3231.25 2191.82 3180.84 2205.18 3146.6 2237.51C3129.18 2254.93 3114.36 2274.76 3102.59 2296.4C3110.11 2280.96 3117.79 2265.03 3125.87 2248.39C3129.31 2241.03 3133.07 2233.51 3136.91 2225.67C3137.71 2224.47 3138.59 2223.35 3139.31 2222.07C3153.59 2202.13 3173.69 2187.09 3196.85 2179.02C3239.34 2165.17 3292.87 2168.21 3281.18 2145.01C3269.5 2121.81 3199.41 2144.05 3175.96 2166.05C3167.34 2174.69 3159.72 2184.28 3153.24 2194.62C3154.28 2192.22 3155.32 2189.66 3156.28 2187.1C3164.76 2170.14 3173.24 2153.17 3181.72 2139.09C3197.16 2121.02 3216.77 2106.99 3238.86 2098.2C3288.07 2077 3346.32 2054.51 3316.23 2045.95C3292.23 2039.07 3229.01 2070.91 3194.45 2115.08L3203.57 2098.12C3222.77 2072.11 3269.18 2012.34 3307.59 1986.66C3333.03 1969.61 3360.64 1956.33 3384.01 1936.17C3386.57 1934.24 3388.65 1931.75 3390.09 1928.88C3396.33 1909.36 3354 1919.28 3346.48 1920.64ZM2902.54 2435.39C2908.95 2425.63 2920.23 2407.62 2932.71 2384.5C2936.56 2395.04 2940.94 2405.37 2945.83 2415.47C2934.31 2439.47 2923.75 2459.8 2917.67 2465.08L2907.11 2474.36C2906.39 2461.72 2904.55 2448.75 2902.71 2435.71L2902.54 2435.39ZM2974.56 2504.12C2966.82 2514.42 2958.48 2524.25 2949.59 2533.57H2911.19C2910.63 2517.57 2909.51 2498.44 2907.67 2477.56L2931.27 2456.75C2931.27 2456.75 2941.59 2448.27 2955.28 2434.59C2961.99 2447.78 2967.19 2461.68 2970.8 2476.04C2973.35 2485.41 2974.72 2495.06 2974.88 2504.76L2974.56 2504.12ZM3006.57 2422.43C3005.44 2438.29 3002.97 2454.03 2999.21 2469.48C2993.2 2478.68 2987.28 2487 2981.68 2494.92C2981.2 2480.68 2977.36 2454.91 2976.96 2453.15C2974.32 2441.62 2972.87 2429.85 2972.64 2418.03C2983.94 2406.4 2994.62 2394.2 3004.65 2381.46C3006.92 2395.1 3007.7 2408.94 3006.97 2422.75L3006.57 2422.43Z" fill="#263238"/>
<path d="M3066.42 358.398V1912.64C3066.42 1952.65 3036.57 1984.66 2999.52 1984.66H184.378C147.411 1984.66 117.404 1952.65 117.404 1912.64V358.398C117.404 318.389 147.411 286.383 184.378 286.383H2999.76C3036.81 286.463 3066.42 318.63 3066.42 358.398Z" fill="white" stroke="#263238" stroke-width="1.06897" stroke-linecap="round" stroke-linejoin="round"/>
<path d="M929.893 558.679H273.756C245.96 558.679 223.426 581.213 223.426 609.01V1715.4C223.426 1743.2 245.96 1765.73 273.756 1765.73H929.893C957.69 1765.73 980.224 1743.2 980.224 1715.4V609.01C980.224 581.213 957.69 558.679 929.893 558.679Z" fill="#92E3A9"/>
<path d="M507.406 826.735C507.406 849.699 500.596 872.146 487.839 891.239C475.081 910.333 456.948 925.214 435.733 934.002C414.517 942.789 391.173 945.089 368.651 940.609C346.129 936.129 325.441 925.071 309.203 908.833C292.966 892.596 281.908 871.908 277.428 849.386C272.948 826.864 275.248 803.519 284.035 782.304C292.823 761.089 307.704 742.956 326.797 730.198C345.891 717.441 368.338 710.631 391.302 710.631C406.551 710.621 421.654 713.617 435.745 719.448C449.836 725.279 462.64 733.83 473.423 744.614C484.206 755.397 492.758 768.201 498.589 782.292C504.42 796.383 507.416 811.485 507.406 826.735Z" fill="white" stroke="#263238" stroke-width="1.06897" stroke-linecap="round" stroke-linejoin="round"/>
<path d="M866.681 760.001H624.311V782.966H866.681V760.001Z" fill="#263238"/>
<path d="M896.287 815.213H624.311V838.178H896.287V815.213Z" fill="#263238"/>
<path d="M866.681 870.424H624.311V893.389H866.681V870.424Z" fill="#263238"/>
<path d="M911.891 925.556H624.311V948.521H911.891V925.556Z" fill="#263238"/>
<path d="M853.398 1078.63H349.213C325.57 1078.63 306.404 1097.79 306.404 1121.44V1225.14C306.404 1248.78 325.57 1267.95 349.213 1267.95H853.398C877.041 1267.95 896.207 1248.78 896.207 1225.14V1121.44C896.207 1097.79 877.041 1078.63 853.398 1078.63Z" fill="white" stroke="#263238" stroke-width="1.06897" stroke-linecap="round" stroke-linejoin="round"/>
<path d="M853.398 1330.92H349.213C325.57 1330.92 306.404 1350.09 306.404 1373.73V1477.43C306.404 1501.07 325.57 1520.24 349.213 1520.24H853.398C877.041 1520.24 896.207 1501.07 896.207 1477.43V1373.73C896.207 1350.09 877.041 1330.92 853.398 1330.92Z" fill="white" stroke="#263238" stroke-width="1.06897" stroke-linecap="round" stroke-linejoin="round"/>
<path d="M2168.87 555.239V1839.11" stroke="#263238" stroke-width="1.06897" stroke-linecap="round" stroke-linejoin="round"/>
<path d="M3066.42 353.517V457.539H117.404V353.517C117.404 335.747 124.458 318.704 137.016 306.131C149.573 293.558 166.608 286.484 184.378 286.463H2999.76C3017.49 286.526 3034.47 293.624 3046.97 306.197C3059.47 318.77 3066.46 335.789 3066.42 353.517Z" fill="#263238"/>
<path d="M319.046 398.646C333.85 398.646 345.851 386.645 345.851 371.841C345.851 357.036 333.85 345.035 319.046 345.035C304.241 345.035 292.24 357.036 292.24 371.841C292.24 386.645 304.241 398.646 319.046 398.646Z" fill="white"/>
<path d="M469.639 371.841C469.639 377.142 468.066 382.325 465.121 386.733C462.176 391.141 457.989 394.577 453.091 396.606C448.193 398.635 442.803 399.165 437.603 398.131C432.404 397.097 427.627 394.544 423.879 390.795C420.13 387.046 417.577 382.27 416.542 377.07C415.508 371.87 416.039 366.481 418.068 361.582C420.097 356.684 423.532 352.498 427.941 349.553C432.349 346.607 437.531 345.035 442.833 345.035C449.942 345.035 456.76 347.859 461.787 352.886C466.814 357.913 469.639 364.731 469.639 371.841Z" fill="white"/>
<path d="M591.904 371.841C591.904 377.142 590.332 382.325 587.387 386.733C584.441 391.141 580.255 394.577 575.357 396.606C570.459 398.635 565.069 399.165 559.869 398.131C554.669 397.097 549.893 394.544 546.144 390.795C542.395 387.046 539.842 382.27 538.808 377.07C537.774 371.87 538.305 366.481 540.333 361.582C542.362 356.684 545.798 352.498 550.206 349.553C554.614 346.607 559.797 345.035 565.099 345.035C572.208 345.035 579.026 347.859 584.053 352.886C589.08 357.913 591.904 364.731 591.904 371.841Z" fill="white"/>
<path d="M2926.79 674.464H2282.98V695.828H2926.79V674.464Z" fill="#92E3A9"/>
<path d="M2593.92 741.117H2282.98V762.482H2593.92V741.117Z" fill="#92E3A9"/>
<path d="M2780.68 807.771H2282.98V829.136H2780.68V807.771Z" fill="#92E3A9"/>
<path d="M2727.55 872.505H2282.98V895.71H2727.55V872.505Z" fill="#92E3A9"/>
<path d="M2713.63 941.079H2282.98V962.444H2713.63V941.079Z" fill="#92E3A9"/>
<path d="M2562.79 1007.73H2282.98V1029.1H2562.79V1007.73Z" fill="#92E3A9"/>
<path opacity="0.2" d="M2926.79 674.464H2282.98V695.828H2926.79V674.464Z" fill="black"/>
<path opacity="0.2" d="M2593.92 741.117H2282.98V762.482H2593.92V741.117Z" fill="black"/>
<path opacity="0.2" d="M2780.68 807.771H2282.98V829.136H2780.68V807.771Z" fill="black"/>
<path opacity="0.2" d="M2727.55 872.505H2282.98V895.71H2727.55V872.505Z" fill="black"/>
<path opacity="0.2" d="M2713.63 941.079H2282.98V962.444H2713.63V941.079Z" fill="black"/>
<path opacity="0.2" d="M2562.79 1007.73H2282.98V1029.1H2562.79V1007.73Z" fill="black"/>
<path d="M391.302 888.428C428.114 888.428 457.956 858.586 457.956 821.775C457.956 784.963 428.114 755.121 391.302 755.121C354.49 755.121 324.648 784.963 324.648 821.775C324.648 858.586 354.49 888.428 391.302 888.428Z" fill="#263238"/>
<path d="M457.876 922.035C437.786 935.926 413.829 943.132 389.409 942.629C364.989 942.127 341.349 933.941 321.848 919.235C332.81 897.23 353.854 863.223 380.58 863.223C414.027 862.743 436.832 877.466 457.876 922.035Z" fill="#263238"/>
<path d="M2881.42 334.793H2239.21C2220.87 334.793 2206 349.66 2206 368V375.681C2206 394.021 2220.87 408.888 2239.21 408.888H2881.42C2899.76 408.888 2914.63 394.021 2914.63 375.681V368C2914.63 349.66 2899.76 334.793 2881.42 334.793Z" fill="white"/>
<path d="M2248.01 347.436V394.485" stroke="#263238" stroke-width="1.06897" stroke-linecap="round" stroke-linejoin="round"/>
<path d="M853.718 1590.97H693.044C675.588 1590.97 661.438 1605.13 661.438 1622.58V1663.15C661.438 1680.61 675.588 1694.76 693.044 1694.76H853.718C871.173 1694.76 885.324 1680.61 885.324 1663.15V1622.58C885.324 1605.13 871.173 1590.97 853.718 1590.97Z" fill="#92E3A9"/>
<path d="M2934.63 1592.49H2336.99V1279.31" stroke="#263238" stroke-width="1.06897" stroke-linecap="round" stroke-linejoin="round"/>
<path d="M2361.15 1463.35L2386.84 1520.72L2521.67 1342.28L2549.83 1428.38L2603.12 1398.45L2726.27 1520.72L2818.21 1435.9L2853.74 1473.27L2915.03 1352.76" stroke="#263238" stroke-width="1.06897" stroke-linecap="round" stroke-linejoin="round"/>
<path d="M2322.98 1572.81H2279.7V1592.41H2322.98V1572.81Z" fill="#92E3A9"/>
<path d="M2322.98 1501.12H2279.7V1520.72H2322.98V1501.12Z" fill="#92E3A9"/>
<path d="M2322.98 1429.34H2279.7V1448.94H2322.98V1429.34Z" fill="#92E3A9"/>
<path d="M2322.98 1357.57H2279.7V1377.17H2322.98V1357.57Z" fill="#92E3A9"/>
<path d="M2322.98 1285.87H2279.7V1305.48H2322.98V1285.87Z" fill="#92E3A9"/>
<path d="M2628.81 1608.26V1731.88H2648.09V1608.26H2628.81Z" fill="#92E3A9"/>
<path d="M2697.46 1608.26V1731.88H2716.75V1608.26H2697.46Z" fill="#92E3A9"/>
<path d="M2766.12 1608.34V1731.96H2785.4V1608.34H2766.12Z" fill="#92E3A9"/>
<path d="M2834.77 1608.34V1731.96H2854.05V1608.34H2834.77Z" fill="#92E3A9"/>
<path d="M2903.42 1608.34V1731.96H2922.71V1608.34H2903.42Z" fill="#92E3A9"/>
<path d="M2558.39 1608.34V1731.96H2577.68V1608.34H2558.39Z" fill="#92E3A9"/>
<path d="M2487.98 1608.34V1731.96H2507.26V1608.34H2487.98Z" fill="#92E3A9"/>
<path d="M2417.48 1608.26V1731.88H2436.77V1608.26H2417.48Z" fill="#92E3A9"/>
<path d="M2347.07 1608.34V1731.96H2366.35V1608.34H2347.07Z" fill="#92E3A9"/>
<path d="M1799.35 611.49C1767.39 611.49 1736.74 624.186 1714.14 646.786C1691.55 669.385 1678.85 700.036 1678.85 731.996C1678.85 763.956 1691.55 794.606 1714.14 817.206C1736.74 839.805 1767.39 852.501 1799.35 852.501C1815.18 852.821 1830.91 850.022 1845.66 844.262C1860.4 838.502 1873.86 829.895 1885.28 818.931C1896.7 807.968 1905.84 794.863 1912.19 780.366C1918.55 765.868 1921.98 750.261 1922.3 734.436C1922.62 718.611 1919.82 702.878 1914.06 688.135C1908.3 673.392 1899.69 659.928 1888.73 648.511C1877.77 637.095 1864.66 627.949 1850.17 621.597C1835.67 615.245 1820.06 611.811 1804.24 611.49H1799.35Z" fill="#263238"/>
<path d="M1875.77 693.348C1874.88 689.953 1873.11 686.853 1870.64 684.365C1868.17 681.877 1865.08 680.09 1861.69 679.185C1849.2 675.824 1799.27 675.824 1799.27 675.824C1799.27 675.824 1749.34 675.824 1736.94 679.185C1733.54 680.085 1730.44 681.869 1727.95 684.357C1725.46 686.845 1723.68 689.947 1722.78 693.348C1718.38 718.952 1718.38 745.119 1722.78 770.724C1723.68 774.125 1725.46 777.227 1727.95 779.714C1730.44 782.202 1733.54 783.987 1736.94 784.887C1749.34 788.247 1799.27 788.247 1799.27 788.247C1799.27 788.247 1849.2 788.247 1861.69 784.887C1865.07 783.967 1868.15 782.174 1870.62 779.689C1873.09 777.203 1874.87 774.111 1875.77 770.724C1880.26 745.127 1880.26 718.944 1875.77 693.348Z" fill="white"/>
<path d="M1782.95 755.761V708.311L1824.72 731.996L1782.95 755.761Z" fill="#263238"/>
<path d="M1324.61 611.811C1300.88 611.811 1277.67 618.85 1257.93 632.039C1238.19 645.227 1222.81 663.972 1213.73 685.904C1204.64 707.836 1202.26 731.969 1206.9 755.251C1211.53 778.534 1222.96 799.92 1239.74 816.706C1256.53 833.492 1277.92 844.923 1301.2 849.554C1324.48 854.186 1348.61 851.809 1370.55 842.724C1392.48 833.64 1411.22 818.256 1424.41 798.518C1437.6 778.78 1444.64 755.574 1444.64 731.836C1444.64 700.003 1431.99 669.474 1409.49 646.965C1386.98 624.456 1356.45 611.811 1324.61 611.811Z" fill="#263238"/>
<path d="M1304.37 809.132H1335.5V731.196H1357.18L1359.5 705.11H1335.5V690.147C1335.5 683.986 1336.7 681.585 1342.7 681.585H1359.5V654.459H1338.06C1314.93 654.459 1304.45 664.702 1304.45 684.146V704.95H1288.45V731.276H1304.45L1304.37 809.132Z" fill="white"/>
<path d="M1323.9 1100.31C1300.07 1100.31 1276.77 1107.38 1256.95 1120.62C1237.14 1133.85 1221.69 1152.67 1212.57 1174.68C1203.45 1196.7 1201.06 1220.92 1205.7 1244.3C1210.34 1267.67 1221.81 1289.14 1238.66 1306C1255.5 1322.86 1276.97 1334.34 1300.34 1339C1323.71 1343.66 1347.93 1341.28 1369.96 1332.17C1391.98 1323.06 1410.8 1307.63 1424.05 1287.82C1437.3 1268.02 1444.38 1244.73 1444.4 1220.9C1444.4 1188.93 1431.71 1158.27 1409.11 1135.66C1386.51 1113.05 1355.86 1100.33 1323.9 1100.31Z" fill="#263238"/>
<path d="M1323.9 1163.29C1342.62 1163.29 1344.86 1163.29 1352.3 1163.29C1356.76 1163.36 1361.17 1164.2 1365.34 1165.77C1368.37 1166.87 1371.11 1168.65 1373.35 1170.97C1375.68 1173.21 1377.48 1175.94 1378.63 1178.97C1380.18 1183.14 1380.99 1187.56 1381.03 1192.01C1381.03 1199.45 1381.03 1201.93 1381.03 1220.34C1381.03 1238.74 1381.03 1241.38 1381.03 1248.74C1381 1253.2 1380.19 1257.61 1378.63 1261.79C1377.51 1264.83 1375.7 1267.57 1373.35 1269.79C1371.11 1272.13 1368.37 1273.93 1365.34 1275.07C1361.16 1276.57 1356.75 1277.39 1352.3 1277.47C1344.86 1277.47 1342.62 1277.47 1323.9 1277.47C1305.17 1277.47 1302.93 1277.47 1295.49 1277.47C1291.04 1277.4 1286.63 1276.59 1282.45 1275.07C1279.42 1273.93 1276.68 1272.13 1274.45 1269.79C1272.09 1267.57 1270.28 1264.83 1269.16 1261.79C1267.61 1257.61 1266.79 1253.2 1266.76 1248.74C1266.76 1241.38 1266.28 1239.14 1266.28 1220.34C1266.28 1201.53 1266.28 1199.45 1266.76 1192.01C1266.8 1187.56 1267.61 1183.14 1269.16 1178.97C1270.28 1175.93 1272.09 1173.19 1274.45 1170.97C1276.68 1168.65 1279.42 1166.87 1282.45 1165.77C1286.63 1164.22 1291.03 1163.38 1295.49 1163.29C1302.93 1163.29 1305.09 1163.29 1323.9 1163.29ZM1323.9 1150.64C1304.85 1150.64 1302.37 1150.64 1294.93 1150.64C1289.2 1150.7 1283.51 1151.73 1278.13 1153.68C1273.47 1155.48 1269.25 1158.24 1265.72 1161.76C1262.2 1165.29 1259.44 1169.52 1257.64 1174.17C1255.61 1179.63 1254.5 1185.39 1254.36 1191.21C1254.36 1198.73 1253.88 1201.13 1253.88 1220.18C1253.88 1239.22 1253.88 1241.62 1254.36 1249.14C1254.48 1254.97 1255.59 1260.73 1257.64 1266.19C1259.41 1270.9 1262.15 1275.18 1265.68 1278.76C1269.2 1282.35 1273.45 1285.15 1278.13 1286.99C1283.6 1288.99 1289.35 1290.09 1295.17 1290.27C1302.69 1290.27 1305.09 1290.27 1324.14 1290.27C1343.18 1290.27 1345.58 1290.27 1353.1 1290.27C1358.92 1290.09 1364.68 1288.99 1370.15 1286.99C1374.8 1285.17 1379.02 1282.41 1382.55 1278.86C1386.08 1275.32 1388.83 1271.09 1390.63 1266.43C1392.68 1260.97 1393.79 1255.21 1393.91 1249.38C1393.91 1241.94 1394.39 1239.54 1394.39 1220.42C1394.39 1201.29 1394.39 1198.97 1393.91 1191.45C1393.78 1185.65 1392.67 1179.92 1390.63 1174.49C1388.84 1169.82 1386.1 1165.58 1382.57 1162.03C1379.04 1158.49 1374.81 1155.73 1370.15 1153.92C1364.69 1151.89 1358.93 1150.78 1353.1 1150.64C1345.58 1150.64 1343.18 1150.64 1324.14 1150.64" fill="white"/>
<path d="M1323.9 1184.49C1316.76 1184.47 1309.78 1186.58 1303.83 1190.53C1297.89 1194.48 1293.25 1200.11 1290.51 1206.69C1287.76 1213.28 1287.03 1220.54 1288.41 1227.54C1289.78 1234.54 1293.21 1240.98 1298.24 1246.04C1303.28 1251.1 1309.7 1254.55 1316.7 1255.96C1323.69 1257.36 1330.95 1256.67 1337.55 1253.95C1344.15 1251.23 1349.8 1246.62 1353.78 1240.69C1357.76 1234.77 1359.89 1227.79 1359.9 1220.66C1359.9 1211.11 1356.11 1201.95 1349.36 1195.2C1342.6 1188.44 1333.45 1184.65 1323.9 1184.65M1323.9 1243.94C1319.26 1243.96 1314.71 1242.6 1310.85 1240.03C1306.98 1237.46 1303.97 1233.81 1302.18 1229.52C1300.39 1225.24 1299.92 1220.53 1300.81 1215.97C1301.71 1211.42 1303.93 1207.23 1307.21 1203.95C1310.49 1200.66 1314.66 1198.42 1319.21 1197.51C1323.76 1196.6 1328.48 1197.06 1332.77 1198.83C1337.06 1200.6 1340.72 1203.61 1343.3 1207.46C1345.88 1211.32 1347.26 1215.86 1347.26 1220.5C1347.26 1226.7 1344.8 1232.65 1340.42 1237.05C1336.04 1241.44 1330.1 1243.92 1323.9 1243.94Z" fill="white"/>
<path d="M1803.84 1332.44C1788.75 1332.45 1773.82 1329.49 1759.88 1323.72C1745.95 1317.96 1733.28 1309.5 1722.62 1298.83C1711.95 1288.17 1703.5 1275.51 1697.73 1261.57C1691.96 1247.63 1689 1232.7 1689.01 1217.62C1689.01 1187.16 1701.11 1157.96 1722.64 1136.42C1744.18 1114.89 1773.38 1102.79 1803.84 1102.79C1834.29 1102.79 1863.49 1114.89 1885.03 1136.42C1906.56 1157.96 1918.66 1187.16 1918.66 1217.62C1918.67 1232.7 1915.71 1247.63 1909.94 1261.57C1904.17 1275.51 1895.72 1288.17 1885.05 1298.83C1874.39 1309.5 1861.73 1317.96 1847.79 1323.72C1833.85 1329.49 1818.92 1332.45 1803.84 1332.44Z" fill="#263238" stroke="#263238" stroke-width="1.06897" stroke-linecap="round" stroke-linejoin="round"/>
<path d="M1742.7 1256.51C1754.15 1263.88 1767.49 1267.77 1781.11 1267.71C1790.84 1267.78 1800.47 1265.85 1809.42 1262.05C1818.37 1258.25 1826.45 1252.64 1833.15 1245.59C1839.85 1238.54 1845.03 1230.19 1848.37 1221.06C1851.71 1211.92 1853.14 1202.2 1852.57 1192.49C1857.41 1188.88 1861.6 1184.47 1864.97 1179.45C1860.39 1181.5 1855.54 1182.84 1850.57 1183.45C1855.78 1180.28 1859.67 1175.34 1861.53 1169.53C1856.59 1172.5 1851.17 1174.61 1845.52 1175.77C1841.73 1171.77 1836.74 1169.13 1831.3 1168.25C1825.86 1167.37 1820.28 1168.3 1815.43 1170.9C1810.57 1173.5 1806.7 1177.63 1804.42 1182.64C1802.14 1187.66 1801.57 1193.28 1802.8 1198.65C1792.82 1198.14 1783.07 1195.54 1774.16 1191.02C1765.26 1186.5 1757.4 1180.16 1751.1 1172.41C1747.91 1177.96 1746.96 1184.53 1748.45 1190.76C1749.94 1196.99 1753.75 1202.42 1759.11 1205.93C1755.13 1205.8 1751.24 1204.73 1747.74 1202.81C1747.7 1208.64 1749.68 1214.29 1753.34 1218.82C1757 1223.34 1762.13 1226.45 1767.83 1227.62C1764.12 1228.54 1760.25 1228.54 1756.55 1227.62C1758.14 1232.61 1761.25 1236.99 1765.46 1240.11C1769.67 1243.24 1774.75 1244.97 1779.99 1245.06C1774.83 1249.33 1768.89 1252.53 1762.49 1254.5C1756.09 1256.46 1749.37 1257.14 1742.7 1256.51Z" fill="white"/>
<path d="M1800 1613.94C1776.14 1613.92 1752.82 1620.98 1732.98 1634.22C1713.14 1647.46 1697.67 1666.29 1688.53 1688.32C1679.39 1710.36 1676.99 1734.6 1681.64 1758C1686.28 1781.4 1697.76 1802.89 1714.62 1819.76C1731.48 1836.63 1752.97 1848.13 1776.36 1852.79C1799.75 1857.45 1824 1855.06 1846.04 1845.94C1868.08 1836.81 1886.92 1821.36 1900.17 1801.53C1913.43 1781.69 1920.5 1758.38 1920.5 1734.52C1920.5 1702.56 1907.81 1671.9 1885.21 1649.29C1862.61 1626.67 1831.96 1613.96 1800 1613.94Z" fill="#263238"/>
<path d="M1764.79 1702.92H1738.3V1788.54H1764.79V1702.92Z" fill="white"/>
<path d="M1751.43 1691.72C1754.59 1691.72 1757.68 1690.78 1760.32 1689.02C1762.95 1687.26 1765 1684.76 1766.21 1681.84C1767.42 1678.91 1767.74 1675.69 1767.12 1672.59C1766.5 1669.49 1764.98 1666.63 1762.74 1664.4C1760.5 1662.16 1757.65 1660.63 1754.55 1660.02C1751.44 1659.4 1748.23 1659.72 1745.3 1660.93C1742.38 1662.14 1739.88 1664.19 1738.12 1666.82C1736.36 1669.45 1735.42 1672.55 1735.42 1675.71C1735.42 1679.96 1737.11 1684.03 1740.11 1687.03C1743.11 1690.03 1747.18 1691.72 1751.43 1691.72Z" fill="white"/>
<path d="M1807.2 1743.65C1807.2 1731.56 1812.72 1724.44 1823.2 1724.44C1833.68 1724.44 1837.6 1731.32 1837.6 1743.65V1788.54H1864.01V1734.52C1864.01 1711.64 1850.97 1700.44 1832.72 1700.44C1827.56 1700.38 1822.48 1701.66 1817.96 1704.16C1813.44 1706.66 1809.65 1710.28 1806.96 1714.68V1703.24H1781.43V1788.86H1806.96L1807.2 1743.65Z" fill="white"/>
<path d="M1323.82 1854.55C1291.86 1854.55 1261.2 1841.85 1238.61 1819.25C1216.01 1796.66 1203.31 1766 1203.31 1734.04C1203.31 1702.08 1216 1671.42 1238.6 1648.81C1261.2 1626.19 1291.85 1613.48 1323.82 1613.46C1355.8 1613.46 1386.47 1626.16 1409.08 1648.78C1431.7 1671.39 1444.4 1702.06 1444.4 1734.04C1444.38 1766.01 1431.67 1796.66 1409.05 1819.26C1386.44 1841.86 1355.78 1854.55 1323.82 1854.55Z" fill="#263238"/>
<path d="M1306.05 1779.73C1309.51 1779.01 1312.78 1777.56 1315.65 1775.49C1318.71 1773.1 1321.18 1770.04 1322.87 1766.54C1324.57 1763.05 1325.43 1759.21 1325.42 1755.33C1325.54 1750.97 1324.4 1746.66 1322.13 1742.93C1319.82 1739.41 1316.38 1736.78 1312.37 1735.48C1314.82 1734.31 1317.02 1732.68 1318.85 1730.68C1321.58 1727.11 1322.94 1722.69 1322.69 1718.2C1322.85 1713.6 1321.5 1709.08 1318.85 1705.32C1316.17 1702.2 1312.78 1699.75 1308.97 1698.2C1305.16 1696.64 1301.03 1696.01 1296.93 1696.36H1256.04V1780.69H1293.97C1298.02 1780.78 1302.07 1780.45 1306.05 1779.73ZM1272.92 1711H1291.25C1294.64 1710.88 1298.02 1711.34 1301.25 1712.36C1302.81 1712.98 1304.11 1714.1 1304.94 1715.56C1305.77 1717.01 1306.07 1718.71 1305.81 1720.36C1305.96 1721.8 1305.72 1723.25 1305.12 1724.56C1304.51 1725.87 1303.56 1726.99 1302.37 1727.8C1299.62 1729.29 1296.53 1730 1293.41 1729.88H1272.92V1711ZM1272.92 1766.21V1743.65H1293.65C1296.53 1743.59 1299.41 1744.05 1302.13 1745.01C1303.86 1745.79 1305.31 1747.08 1306.28 1748.71C1307.26 1750.34 1307.71 1752.23 1307.57 1754.13C1307.78 1756.25 1307.36 1758.38 1306.37 1760.26C1305.37 1762.13 1303.84 1763.68 1301.97 1764.69C1299.25 1765.79 1296.34 1766.31 1293.41 1766.21H1272.92Z" fill="white"/>
<path d="M1339.42 1775.33C1345.57 1780.53 1353.37 1783.36 1361.42 1783.33C1365.85 1783.68 1370.3 1783.04 1374.45 1781.46C1378.6 1779.89 1382.35 1777.41 1385.43 1774.21C1388.62 1771.25 1390.74 1767.31 1391.43 1763.01H1374.71C1373.89 1764.62 1372.78 1766.06 1371.43 1767.25C1368.82 1769.27 1365.59 1770.29 1362.3 1770.13C1359.13 1770.21 1356 1769.41 1353.26 1767.81C1351.14 1766.36 1349.42 1764.37 1348.29 1762.06C1347.15 1759.75 1346.63 1757.18 1346.78 1754.61H1392.31C1392.47 1750.47 1392.31 1746.32 1391.83 1742.21C1391 1737.28 1389.02 1732.63 1386.07 1728.6C1383.4 1724.58 1379.66 1721.39 1375.27 1719.4C1370.63 1717.38 1365.61 1716.37 1360.54 1716.44C1356.43 1716.28 1352.33 1716.97 1348.49 1718.45C1344.65 1719.94 1341.15 1722.2 1338.22 1725.08C1332.38 1731.94 1329.51 1740.83 1330.22 1749.81C1329.68 1754.48 1330.23 1759.22 1331.83 1763.65C1333.43 1768.08 1336.02 1772.07 1339.42 1775.33ZM1351.1 1733.72C1352.41 1732.5 1353.94 1731.55 1355.62 1730.94C1357.29 1730.32 1359.08 1730.04 1360.86 1730.12C1364.43 1730.03 1367.91 1731.25 1370.63 1733.56C1371.98 1734.82 1373.06 1736.34 1373.81 1738.04C1374.55 1739.73 1374.94 1741.56 1374.95 1743.41H1346.78C1347.17 1739.81 1348.68 1736.42 1351.1 1733.72Z" fill="white"/>
<path d="M1378.15 1701.16H1341.42V1709.72H1378.15V1701.16Z" fill="white"/>
<path d="M1454.08 566.441H1195.15C1175.22 566.441 1159.06 582.598 1159.06 602.529V861.463C1159.06 881.393 1175.22 897.55 1195.15 897.55H1454.08C1474.01 897.55 1490.17 881.393 1490.17 861.463V602.529C1490.17 582.598 1474.01 566.441 1454.08 566.441Z" stroke="#92E3A9" stroke-width="1.06897" stroke-miterlimit="10"/>
<path d="M1931.22 566.441H1672.29C1652.36 566.441 1636.2 582.598 1636.2 602.529V861.463C1636.2 881.393 1652.36 897.55 1672.29 897.55H1931.22C1951.15 897.55 1967.31 881.393 1967.31 861.463V602.529C1967.31 582.598 1951.15 566.441 1931.22 566.441Z" stroke="#92E3A9" stroke-width="1.06897" stroke-miterlimit="10"/>
<path d="M1454.08 1051.42H1195.15C1175.22 1051.42 1159.06 1067.58 1159.06 1087.51V1346.44C1159.06 1366.37 1175.22 1382.53 1195.15 1382.53H1454.08C1474.01 1382.53 1490.17 1366.37 1490.17 1346.44V1087.51C1490.17 1067.58 1474.01 1051.42 1454.08 1051.42Z" stroke="#92E3A9" stroke-width="1.06897" stroke-miterlimit="10"/>
<path d="M1931.22 1051.42H1672.29C1652.36 1051.42 1636.2 1067.58 1636.2 1087.51V1346.44C1636.2 1366.37 1652.36 1382.53 1672.29 1382.53H1931.22C1951.15 1382.53 1967.31 1366.37 1967.31 1346.44V1087.51C1967.31 1067.58 1951.15 1051.42 1931.22 1051.42Z" stroke="#92E3A9" stroke-width="1.06897" stroke-miterlimit="10"/>
<path d="M1454.08 1560.41H1195.15C1175.22 1560.41 1159.06 1576.57 1159.06 1596.5V1855.43C1159.06 1875.36 1175.22 1891.52 1195.15 1891.52H1454.08C1474.01 1891.52 1490.17 1875.36 1490.17 1855.43V1596.5C1490.17 1576.57 1474.01 1560.41 1454.08 1560.41Z" stroke="#92E3A9" stroke-width="1.06897" stroke-miterlimit="10"/>
<path d="M1931.22 1560.41H1672.29C1652.36 1560.41 1636.2 1576.57 1636.2 1596.5V1855.43C1636.2 1875.36 1652.36 1891.52 1672.29 1891.52H1931.22C1951.15 1891.52 1967.31 1875.36 1967.31 1855.43V1596.5C1967.31 1576.57 1951.15 1560.41 1931.22 1560.41Z" stroke="#92E3A9" stroke-width="1.06897" stroke-miterlimit="10"/>
<path d="M1922.34 1428.46H1689.01V1499.28H1922.34V1428.46Z" fill="#92E3A9"/>
<path d="M1922.34 942.68H1689.01V1013.49H1922.34V942.68Z" fill="#92E3A9"/>
<path d="M1440.56 942.68H1207.23V1013.49H1440.56V942.68Z" fill="#92E3A9"/>
<path d="M1440.56 1428.46H1207.23V1499.28H1440.56V1428.46Z" fill="#92E3A9"/>
<path d="M1922.34 1428.46H1689.01V1499.28H1922.34V1428.46Z" fill="#263238"/>
<path d="M1922.34 942.68H1689.01V1013.49H1922.34V942.68Z" fill="#263238"/>
<path d="M1440.56 942.68H1207.23V1013.49H1440.56V942.68Z" fill="#263238"/>
<path d="M1440.56 1428.46H1207.23V1499.28H1440.56V1428.46Z" fill="#263238"/>
<path d="M345.852 594.127H866.6" stroke="#263238" stroke-width="1.06897" stroke-linecap="round" stroke-linejoin="round"/>
<path d="M1027.67 2650.72C1027.67 2650.72 1046.32 2714.73 1040.08 2753.86C1040.08 2753.86 1032.64 2818.99 1024.07 2853.72C1015.51 2888.44 1006.79 2912.53 1055.68 2926.29C1104.57 2940.06 1224.68 2910.85 1252.84 2920.69C1281.01 2930.53 1441.36 2908.53 1465.29 2897.97C1489.21 2887.4 1492.97 2814.19 1441.28 2788.74C1389.59 2763.3 1027.67 2650.72 1027.67 2650.72Z" fill="white"/>
<path d="M1034.8 2784.82C1034.8 2784.82 1020.87 2863.08 1021.27 2877.32C1045.02 2870.55 1069.49 2866.63 1094.17 2865.64C1127.14 2865.64 1225.96 2866.92 1265.16 2861C1304.37 2855.08 1379.75 2827.47 1414.64 2827.31C1436.77 2827.3 1458.86 2829.26 1480.65 2833.15C1480.65 2833.15 1484.73 2805.23 1429.68 2790.66C1374.63 2776.1 1174.03 2733.93 1174.03 2733.93C1174.03 2733.93 1129.22 2782.1 1034.8 2784.82Z" fill="#92E3A9"/>
<path d="M1733.66 2747.54C1733.66 2747.54 1768.79 2725.29 1801.84 2738.89C1834.88 2752.5 1952.59 2752.82 1952.59 2752.82C1952.59 2752.82 2045.73 2741.13 2085.41 2760.82C2125.1 2780.5 2129.5 2810.19 2126.38 2833.31C2123.26 2856.44 2064.69 2918.13 1987.79 2921.33C1910.9 2924.53 1904.58 2907.25 1841.36 2903.89C1841.36 2903.89 1756.55 2898.53 1732.06 2887.88C1707.58 2877.24 1675.57 2868.44 1676.53 2822.67C1677.49 2776.9 1733.66 2747.54 1733.66 2747.54Z" fill="white"/>
<path d="M1733.66 2747.54C1733.66 2747.54 1769.27 2727.37 1832.16 2746.25C1895.05 2765.14 2005.88 2737.21 2053.89 2753.86C2101.9 2770.5 2108.54 2801.87 2102.38 2813.95C2096.22 2826.03 2055.33 2874.92 2009.88 2882.68C1964.43 2890.45 1861.93 2885.72 1814.96 2894.29C1814.96 2894.29 1717.9 2899.89 1686.93 2851.4C1655.97 2802.91 1733.66 2747.54 1733.66 2747.54Z" fill="#92E3A9"/>
<path d="M413.226 2712.49L354.014 2602.15L515.487 2435.55L661.198 2452.91L743.695 2578.62L723.131 2650.72L413.226 2712.49Z" fill="#263238"/>
<path d="M291.041 2682.32C291.041 2682.32 295.522 2888.68 429.31 2911.01C563.098 2933.33 1040.56 2701.05 1040.56 2701.05C1040.56 2701.05 1218.35 2793.38 1352.14 2805.07C1485.93 2816.75 1680.21 2841.64 1700.05 2863.88C1719.9 2886.12 1794.15 2792.82 1751.35 2736.81C1751.35 2736.81 1606.44 2727.61 1515.06 2682.08C1423.68 2636.55 1124.89 2463.72 1064.72 2453.15C1004.55 2442.59 656.637 2607.51 656.637 2607.51L551.815 2629.83L291.041 2682.32Z" fill="#263238"/>
<path d="M686.883 2534.93L661.197 2452.91C661.197 2452.91 918.291 2167.17 1027.67 2171.02C1137.06 2174.86 1156.34 2271.6 1163.7 2347.05C1171.06 2422.51 1163.7 2534.61 1163.7 2534.61L912.29 2566.06L722.73 2650.72L686.483 2534.93" fill="#263238"/>
<path d="M965.822 2487C965.822 2491.48 974.624 2356.73 1013.27 2296.48" stroke="white" stroke-width="1.06897" stroke-linecap="round" stroke-linejoin="round"/>
<path d="M1054.32 2294.24C1051.59 2320.85 1051.75 2347.68 1054.8 2374.26" stroke="white" stroke-width="1.06897" stroke-linecap="round" stroke-linejoin="round"/>
<path d="M1035.92 2782.1C1035.92 2782.1 1016.95 2881.24 1022.15 2902.13C1028.79 2928.61 1098.09 2929.17 1117.77 2930.05C1161.3 2931.89 1204.75 2927.57 1248.28 2928.29C1281.41 2928.85 1314.45 2932.37 1347.66 2931.89C1380.92 2932.59 1413.9 2925.78 1444.16 2911.97C1469.61 2899.25 1486.25 2881.16 1483.05 2851.56C1478.81 2812.51 1465.77 2802.67 1411.83 2796.51C1357.9 2790.34 1167.54 2733.45 1167.54 2733.45C1167.54 2733.45 1138.02 2785.3 1035.92 2782.1Z" stroke="#263238" stroke-width="1.06897" stroke-linecap="round" stroke-linejoin="round"/>
<path d="M1035.92 2782.1C1043.34 2745.13 1043.34 2707.05 1035.92 2670.08C1023.27 2613.11 1121.29 2662.72 1121.29 2662.72L1174.03 2719.61L1167.54 2733.37" stroke="#263238" stroke-width="1.06897" stroke-linecap="round" stroke-linejoin="round"/>
<path d="M1027.67 2912.37C1027.45 2906.7 1029.2 2901.12 1032.63 2896.59C1036.06 2892.07 1040.95 2888.88 1046.48 2887.56C1060.72 2883.8 1078 2886.36 1092.49 2886.76C1117.53 2887.56 1142.58 2888.6 1167.62 2888.84C1251.96 2889.56 1333.82 2862.84 1418.08 2859.64C1432.88 2859.08 1459.36 2855.16 1472.49 2864.36C1493.61 2879.16 1454.64 2908.21 1440 2914.13C1404.11 2927.05 1366.1 2933.07 1327.98 2931.89C1278.53 2929.57 1201.07 2929.89 1167.54 2930.29C1134.02 2930.69 1071.12 2943.5 1027.67 2912.37Z" fill="#263238"/>
<path d="M1024.55 2877C1046.75 2868.51 1070.42 2864.54 1094.17 2865.32C1181.71 2864.92 1278.21 2870.12 1361.74 2839.07C1398.71 2825.31 1459.13 2817.95 1481.13 2839.07" stroke="#263238" stroke-width="1.06897" stroke-linecap="round" stroke-linejoin="round"/>
<path d="M1685.57 2846.44C1685.57 2846.44 1688.69 2882.28 1748.78 2890.77C1808.88 2899.25 1930.18 2914.77 1970.27 2920.29C2010.36 2925.81 2125.34 2882.28 2126.38 2825.87C2127.42 2769.46 2077.89 2752.58 2047.25 2751.54C2016.6 2750.5 1871.21 2756.82 1832.16 2746.26C1793.11 2735.69 1770.95 2731.45 1747.74 2745.21" stroke="#263238" stroke-width="1.06897" stroke-linecap="round" stroke-linejoin="round"/>
<path d="M2066.21 2753.86C2066.21 2753.86 2100.38 2780.02 2103.58 2806.35C2106.78 2832.67 2038.21 2884.36 1976.99 2889.65C1915.78 2894.93 1837.36 2884.12 1802.24 2897.65" stroke="#263238" stroke-width="1.06897" stroke-linecap="round" stroke-linejoin="round"/>
<path d="M300.564 1907.44C300.564 1907.44 347.294 1942.09 369.858 1927.2C392.423 1912.32 441.873 1855.99 441.873 1855.99L513.248 1894.88L588.144 2135.33L638.234 2347.85L718.251 2386.98V2420.99C718.251 2420.99 671.201 2469.72 622.231 2484.2C573.261 2498.68 519.809 2512.77 479.481 2503.32C439.153 2493.88 361.857 2226.79 361.857 2226.79L167.416 1942.65L300.564 1907.44Z" fill="#263238"/>
<path d="M934.535 2466.28L588.062 2378.26L934.535 2217.75L1265.16 2302.08L934.535 2466.28Z" fill="white" stroke="#263238" stroke-width="1.06897" stroke-linecap="round" stroke-linejoin="round"/>
<path d="M934.535 2466.28L1011.99 2110.68L1335.58 1987.22L1269.08 2304.4L934.535 2466.28Z" fill="white"/>
<path d="M588.062 2374.18V2393.62L936.615 2487L1272.61 2318.65L1274.45 2299.28L936.615 2462.68L588.062 2374.18Z" fill="#263238"/>
<path d="M419.867 1881.27C459.512 1929 490.763 1983.12 512.286 2041.31C543.333 2130.85 601.665 2320.33 596.624 2393.38L720.09 2297.36C707.946 2236.17 703.458 2173.7 706.727 2111.4C713.528 2020.18 720.41 1874.87 640.633 1862.95C557.256 1845.11 446.033 1817.9 446.033 1817.9L419.867 1881.27Z" fill="#92E3A9"/>
<path d="M211.104 1845.59C211.104 1845.59 85.8782 1912.64 70.3549 1939.69C54.8317 1966.73 45.7898 1958.73 51.631 2001.46C57.4723 2044.19 88.5187 2183.5 96.0403 2230.55C103.562 2277.6 129.087 2480.76 129.087 2480.76C152.081 2490.75 175.877 2498.78 200.222 2504.76L36.5879 2718.65C36.5879 2718.65 98.2808 2852.68 216.145 2856.84C334.01 2861 388.661 2746.34 439.632 2665.6C490.602 2584.86 524.77 2475.72 524.77 2475.72L549.495 2471.16L540.293 2355.13L524.77 2357.53C524.77 2357.53 521.489 2195.74 452.755 2073.8C384.02 1951.85 211.104 1845.59 211.104 1845.59Z" fill="#92E3A9"/>
<path opacity="0.2" d="M476.679 1838.31C476.679 1838.31 531.171 1866.15 536.772 1901.2C542.373 1936.25 524.449 1979.7 550.615 1996.82C576.78 2013.94 607.507 2017.54 622.63 2063.15C637.753 2108.76 633.192 2319.69 622.63 2355.85C612.068 2392.02 597.025 2355.85 597.025 2355.85L579.661 2263.67L543.973 2131.73L508.686 2032.67L476.679 1964.01L438.271 1885.84L476.679 1838.31Z" fill="black"/>
<path d="M547.334 2444.35C547.334 2444.35 598.304 2451.07 615.348 2443.71C632.392 2436.35 647.355 2432.67 659.357 2399.06C671.36 2365.46 693.764 2355.13 717.849 2353.53C741.934 2351.93 796.426 2341.29 805.868 2315.05L782.263 2313.36C790.382 2311.07 797.877 2306.96 804.187 2301.36H794.265C794.265 2301.36 746.895 2276.48 722.73 2270.48C698.565 2264.47 672.72 2258.23 649.915 2277.92C627.11 2297.6 614.868 2340.01 605.586 2351.05C596.304 2362.1 571.739 2375.78 539.492 2375.7L547.334 2444.35Z" fill="white"/>
<path d="M550.615 2444.59C550.615 2444.59 619.75 2456.67 642.794 2429.55C665.839 2402.42 657.838 2364.02 709.048 2355.13C760.259 2346.25 803.628 2335.13 806.028 2315.13C806.028 2315.13 700.727 2305.12 678.002 2323.13" stroke="#263238" stroke-width="1.06897" stroke-linecap="round" stroke-linejoin="round"/>
<path d="M785.945 2312.73C793.19 2311.15 799.747 2307.31 804.668 2301.76L757.379 2292.72C740.815 2289.52 724.252 2284 707.128 2284.72C691.718 2286.52 677.633 2294.31 667.92 2306.4" stroke="#263238" stroke-width="1.06897" stroke-linecap="round" stroke-linejoin="round"/>
<path d="M791.706 2296.72L736.894 2275.84C711.689 2266.24 682.003 2256.95 659.038 2271.12C649.793 2277.56 642.065 2285.94 636.394 2295.68C629.785 2305.94 623.877 2316.63 618.71 2327.69C615.321 2336.16 610.972 2344.21 605.747 2351.69C590.784 2370.58 567.659 2375.3 543.574 2376.34" stroke="#263238" stroke-width="1.06897" stroke-linecap="round" stroke-linejoin="round"/>
<path d="M201.822 1845.59C201.822 1845.59 271.356 1872.79 300.242 1907.44C300.242 1907.44 369.937 1954.81 398.903 1902.72C427.869 1850.63 430.91 1745.73 430.91 1745.73L457.875 1685.79L447.473 1525.04L372.097 1411.82L300.562 1359.25L222.866 1509.2L132.607 1570.65L142.93 1738.69L201.822 1845.59Z" fill="white"/>
<path d="M347.613 1424.54C347.613 1424.54 350.973 1553.53 245.992 1601.06C245.992 1601.06 215.425 1757.65 316.646 1790.78C316.646 1790.78 333.77 1863.99 261.035 1875.67C167.175 1829.66 183.739 1780.45 183.739 1780.45L151.332 1641.79L141.01 1548.57L261.035 1454.39L347.613 1424.54Z" fill="#92E3A9"/>
<path opacity="0.5" d="M347.613 1424.54C347.613 1424.54 350.973 1553.53 245.992 1601.06C245.992 1601.06 215.425 1757.65 316.646 1790.78C316.646 1790.78 333.77 1863.99 261.035 1875.67C167.175 1829.66 183.739 1780.45 183.739 1780.45L151.332 1641.79L141.01 1548.57L261.035 1454.39L347.613 1424.54Z" fill="white"/>
<path d="M429.469 1492.47C429.469 1492.47 433.95 1507.04 429.469 1550.57C424.988 1594.1 435.71 1649.71 421.468 1688.75C407.225 1727.8 383.06 1787.34 316.726 1790.46C265.835 1790.46 212.704 1718.44 206.143 1671.15C206.143 1671.15 144.77 1642.35 152.051 1601.54C159.333 1560.73 198.701 1571.69 209.023 1601.54" stroke="#263238" stroke-width="1.06897" stroke-linecap="round" stroke-linejoin="round"/>
<path d="M374.257 1573.45C369.138 1597.47 369.935 1622.38 376.578 1646.03C378.825 1651.23 379.248 1657.04 377.778 1662.51C376.643 1664.79 374.959 1666.75 372.877 1668.22C370.796 1669.68 368.383 1670.61 365.856 1670.91C360.805 1671.44 355.7 1671.01 350.812 1669.63" stroke="#263238" stroke-width="1.06897" stroke-linecap="round" stroke-linejoin="round"/>
<path d="M347.613 1697.56C347.613 1697.56 318.967 1706.44 301.043 1685.79" stroke="#263238" stroke-width="1.06897" stroke-linecap="round" stroke-linejoin="round"/>
<path d="M211.103 1845.59C228.867 1800.46 195.74 1665.15 195.74 1665.15" stroke="#263238" stroke-width="1.06897" stroke-linecap="round" stroke-linejoin="round"/>
<path d="M321.848 1550.89C321.848 1550.89 280.479 1514.88 261.115 1568.17" stroke="#263238" stroke-width="1.06897" stroke-linecap="round" stroke-linejoin="round"/>
<path d="M381.699 1548.57C384.797 1541.81 389.769 1536.09 396.022 1532.08C399.195 1530.16 402.866 1529.23 406.57 1529.4C410.274 1529.57 413.844 1530.84 416.827 1533.04" stroke="#263238" stroke-width="1.06897" stroke-linecap="round" stroke-linejoin="round"/>
<path d="M309.364 1616.26C313.164 1616.26 316.245 1609.31 316.245 1600.74C316.245 1592.16 313.164 1585.21 309.364 1585.21C305.563 1585.21 302.482 1592.16 302.482 1600.74C302.482 1609.31 305.563 1616.26 309.364 1616.26Z" fill="#263238"/>
<path d="M395.462 1593.86C395.462 1602.42 392.421 1609.38 388.581 1609.38C384.74 1609.38 381.699 1602.42 381.699 1593.86C381.699 1585.29 384.74 1578.33 388.581 1578.33C392.421 1578.33 395.462 1585.29 395.462 1593.86Z" fill="#263238"/>
<path d="M356.335 1780.13C356.335 1780.13 342.092 1808.62 364.816 1870.95" stroke="#263238" stroke-width="1.06897" stroke-linecap="round" stroke-linejoin="round"/>
<path d="M195.741 1578.33C195.741 1578.33 350.333 1521.04 347.773 1424.22C347.773 1424.22 373.538 1486.71 431.63 1518.96C431.63 1518.96 414.987 1430.46 395.623 1391.97C376.259 1353.49 260.715 1323.24 216.465 1332.6C172.216 1341.96 86.9184 1359.73 69.2347 1502.32C51.551 1644.91 69.2347 1752.13 27.626 1809.34C-13.9827 1866.55 -7.74137 1965.45 52.6712 1978.98C58.7545 1960.11 69.1675 1942.93 83.0776 1928.8C104.922 1908 213.265 1847.67 213.265 1847.67C213.265 1847.67 217.986 1739.33 195.901 1665.15C195.901 1665.15 149.651 1650.91 152.132 1601.54C156.613 1563.13 195.741 1578.33 195.741 1578.33Z" fill="#263238"/>
<path d="M390.342 1384.53C412.923 1407.69 432.153 1433.9 447.474 1462.39C481.001 1521.04 518.049 1587.21 534.852 1652.67C541.379 1678.58 542.668 1705.54 538.642 1731.97C534.616 1758.39 525.357 1783.74 511.407 1806.54C506.946 1813.06 503.038 1819.93 499.725 1827.1C496.495 1836 494.45 1845.28 493.644 1854.71C490.843 1876.07 487.562 1898.24 475.88 1916.4C464.198 1934.57 441.633 1947.45 420.909 1941.21C400.711 1933.03 384.416 1917.43 375.379 1897.6C359.376 1853.99 349.294 1826.22 356.335 1780.29C356.335 1780.29 429.55 1715.8 428.99 1641.62C428.43 1567.45 441.633 1516.32 411.547 1479.51C381.46 1442.7 390.342 1384.53 390.342 1384.53Z" fill="#263238"/>
<path d="M213.104 1847.67C213.104 1847.67 111.643 1900.64 70.3543 1939.69C29.0657 1978.74 66.4335 2068.99 83.5571 2160.53C100.681 2252.07 113.963 2339.29 129.087 2480.6C277.437 2549.57 417.147 2493.56 549.494 2470.84L540.292 2355.13C521.008 2356.17 420.267 2385.94 332.249 2359.93C286.799 2346.41 249.752 2366.1 218.465 2401.7" stroke="#263238" stroke-width="1.06897" stroke-linecap="round" stroke-linejoin="round"/>
<path d="M194.541 2370.98C239.75 2348.73 280.639 2338.97 322.568 2357.53" stroke="#263238" stroke-width="1.06897" stroke-linecap="round" stroke-linejoin="round"/>
<path d="M313.846 2354.09C287.681 2283.44 281.28 2201.58 269.117 2123.73" stroke="#263238" stroke-width="1.06897" stroke-linecap="round" stroke-linejoin="round"/>
<path d="M129.088 2001.46C184.814 2033.8 228.152 2083.81 252.234 2143.57" stroke="#263238" stroke-width="1.06897" stroke-linecap="round" stroke-linejoin="round"/>
<path d="M229.988 2054.19L250.393 2093.4" stroke="#263238" stroke-width="1.06897" stroke-linecap="round" stroke-linejoin="round"/>
<path d="M211.104 1845.59C211.104 1845.59 412.666 1961.45 472.038 2113.48C531.41 2265.51 523.329 2355.69 523.329 2355.69" stroke="#263238" stroke-width="1.06897" stroke-linecap="round" stroke-linejoin="round"/>
<path d="M211.103 1845.59C189.579 1891.84 209.583 1945.85 240.39 1982.66C272.396 2021.06 324.807 2041.87 373.377 2049.47C378.658 2050.27 384.98 2051.55 386.74 2056.59C387.595 2059.19 387.595 2061.99 386.74 2064.59C379.459 2088.6 357.054 2107.64 357.534 2132.61C358.397 2142.87 361.308 2152.86 366.096 2161.97C393.298 2222.75 423.94 2281.92 457.875 2339.21" stroke="#263238" stroke-width="1.06897" stroke-linecap="round" stroke-linejoin="round"/>
<path opacity="0.5" d="M222.867 1388.05C213.69 1440.58 194.687 1490.91 166.855 1536.4" stroke="white" stroke-width="1.06897" stroke-linecap="round" stroke-linejoin="round"/>
<path opacity="0.5" d="M132.608 1411.82C103.642 1479.43 117.405 1556.65 114.364 1630.18C111.493 1696.43 94.5249 1761.3 64.5938 1820.46" stroke="white" stroke-width="1.06897" stroke-linecap="round" stroke-linejoin="round"/>
<path d="M524.77 2475.64C524.77 2475.64 422.828 2751.46 324.728 2822.11C226.628 2892.77 117.725 2854.92 36.668 2718.65L200.222 2505.16" stroke="#263238" stroke-width="1.06897" stroke-linecap="round" stroke-linejoin="round"/>
<path d="M229.588 2513.49C245.27 2574.65 281.448 2628.6 332.089 2666.32" stroke="#263238" stroke-width="1.06897" stroke-linecap="round" stroke-linejoin="round"/>
<path d="M209.824 2511.33C202.414 2556.18 204.678 2602.09 216.466 2645.99" stroke="#263238" stroke-width="1.06897" stroke-linecap="round" stroke-linejoin="round"/>
<path d="M381.699 1822.14C381.699 1822.14 474.679 1921.36 531.33 2093.4C587.982 2265.43 596.624 2359.93 596.624 2359.93" stroke="#263238" stroke-width="1.06897" stroke-linecap="round" stroke-linejoin="round"/>
<path d="M309.365 1914.4C309.365 1914.4 369.538 1954.41 399.224 1902.72C428.91 1851.03 407.226 1833.5 407.226 1833.5" stroke="#263238" stroke-width="1.06897" stroke-linecap="round" stroke-linejoin="round"/>
<path d="M393.863 1814.78C412.667 1811.74 431.551 1818.3 449.155 1825.5C470.328 1833.33 490.105 1844.52 507.727 1858.63C525.453 1872.91 537.093 1893.39 540.294 1915.92C542.774 1940.65 532.292 1968.01 545.175 1989.38C559.578 2013.38 595.345 2015.54 612.229 2037.79C619.547 2049.17 623.893 2062.21 624.871 2075.72C635.654 2154.33 636.004 2234.02 625.912 2312.72" stroke="#263238" stroke-width="1.06897" stroke-linecap="round" stroke-linejoin="round"/>
<path d="M611.188 1964.65C632.393 1983.21 650.115 2005.4 663.518 2030.19C676.927 2055.25 680.439 2084.43 673.36 2111.96C670.32 2121.89 665.359 2131.25 662.958 2141.25C660.676 2150.86 659.31 2160.67 658.877 2170.54L650.876 2274.56" stroke="#263238" stroke-width="1.06897" stroke-linecap="round" stroke-linejoin="round"/>
<path d="M419.867 1805.74C459.155 1817.5 497.883 1832.62 537.892 1841.19C577.9 1849.75 615.748 1851.91 653.836 1866.87C659.467 1868.9 664.838 1871.59 669.839 1874.87C702.566 1897.76 702.326 1943.85 706.007 1978.9C717.209 2085.72 687.843 2165.57 717.849 2268.72" stroke="#263238" stroke-width="1.06897" stroke-linecap="round" stroke-linejoin="round"/>
<path d="M515.488 2502.84C515.488 2502.84 615.749 2513.49 708.088 2429.87" stroke="#263238" stroke-width="1.06897" stroke-linecap="round" stroke-linejoin="round"/>
<path opacity="0.5" d="M449.873 1929.45C431.47 1902.56 418.907 1869.99 423.708 1837.83C426.829 1816.94 436.991 1797.82 446.113 1778.93C458.818 1754.49 468.158 1728.43 473.878 1701.48C479.504 1674.38 477.17 1646.23 467.157 1620.42C458.597 1602.47 447.7 1585.74 434.75 1570.65" stroke="white" stroke-width="1.06897" stroke-linecap="round" stroke-linejoin="round"/>
<path d="M934.535 2466.28L1335.58 1987.22L1269.08 2304.4L934.535 2466.28Z" fill="#263238"/>
<path opacity="0.8" d="M934.535 2466.28L1335.58 1987.22L1269.08 2304.4L934.535 2466.28Z" fill="white"/>
<path d="M1197.15 2213.1C1191.63 2234.71 1175.54 2249.19 1161.22 2245.51C1146.9 2241.83 1139.94 2221.51 1145.22 2199.74C1150.5 2177.98 1166.9 2163.65 1181.15 2167.33C1195.39 2171.02 1202.75 2191.5 1197.15 2213.1Z" fill="#263238"/>
<path d="M934.535 2466.28L1011.99 2110.68L1335.58 1987.22L1269.08 2304.4L934.535 2466.28Z" stroke="#263238" stroke-width="1.06897" stroke-linecap="round" stroke-linejoin="round"/>
<path d="M921.412 2458.6L997.268 2105.32L1325.02 1982.1L1337.1 1985.14L1011.99 2110.68L934.535 2466.28L921.412 2458.6Z" fill="#263238"/>
<path opacity="0.2" d="M211.105 1845.59C211.105 1845.59 182.619 1924.08 240.391 1982.66C298.163 2041.23 386.741 2056.67 386.741 2056.67V2064.67C386.741 2064.67 348.333 2116.76 359.135 2143.57C369.938 2170.37 469.158 2366.9 469.158 2366.9L525.17 2357.53C526.235 2265.85 505.154 2175.27 463.717 2093.48C393.863 1960.65 211.105 1845.59 211.105 1845.59Z" fill="black"/>
<path opacity="0.2" d="M183.979 2526.29C183.979 2526.29 187.979 2584.38 210.064 2618.31C210.064 2618.31 212.624 2575.58 216.145 2537.89C216.145 2537.89 248.872 2621.59 313.445 2651.12C313.445 2651.12 275.358 2575.58 263.035 2537.89C263.035 2537.89 392.582 2560.94 517.728 2495.24V2477C517.728 2477 324.728 2533.57 200.222 2505.16L183.979 2526.29Z" fill="black"/>
<path opacity="0.2" d="M270.477 2135.33L350.494 2339.21L447.154 2371.22L340.892 2367.14C340.892 2367.14 291.521 2360.01 229.669 2393.38C229.669 2393.38 232.469 2375.38 258.074 2360.17C258.074 2360.17 248.873 2351.21 210.064 2363.78C228.608 2345.43 250.288 2330.55 274.078 2319.85L270.477 2135.33Z" fill="black"/>
<path opacity="0.2" d="M626.311 1976.66C607.027 1955.85 672.321 2010.74 681.282 2037.63C690.244 2064.51 690.724 2093.64 690.564 2121.89C690.404 2150.13 689.764 2179.1 696.966 2206.54C701.767 2224.87 712.169 2250.47 717.85 2268.56C717.85 2268.56 665.279 2261.27 651.196 2274L662.959 2141.01C662.959 2141.01 705.928 2063.07 626.311 1976.66Z" fill="black"/>
<path d="M806.027 2315.05L942.616 2246.63L972.302 2253.27" stroke="#263238" stroke-width="1.06897" stroke-linecap="round" stroke-linejoin="round"/>
<path d="M931.254 2435.55L689.684 2371.86L759.058 2344.89" stroke="#263238" stroke-width="1.06897" stroke-linecap="round" stroke-linejoin="round"/>
<path d="M969.022 2272.24L743.695 2385.22" stroke="#263238" stroke-width="1.06897" stroke-linecap="round" stroke-linejoin="round"/>
<path d="M965.582 2315.05L797.787 2399.22" stroke="#263238" stroke-width="1.06897" stroke-linecap="round" stroke-linejoin="round"/>
<path d="M958.301 2357.21L846.598 2413.23" stroke="#263238" stroke-width="1.06897" stroke-linecap="round" stroke-linejoin="round"/>
<path d="M725.852 2352.09L943.417 2408.5" stroke="#263238" stroke-width="1.06897" stroke-linecap="round" stroke-linejoin="round"/>
<path d="M787.625 2334.25L953.9 2377.46" stroke="#263238" stroke-width="1.06897" stroke-linecap="round" stroke-linejoin="round"/>
<path d="M821.311 2307.44L958.299 2342.97" stroke="#263238" stroke-width="1.06897" stroke-linecap="round" stroke-linejoin="round"/>
<path d="M863 2286.56L965.581 2313.21" stroke="#263238" stroke-width="1.06897" stroke-linecap="round" stroke-linejoin="round"/>
<path d="M905.729 2266.8L972.302 2284" stroke="#263238" stroke-width="1.06897" stroke-linecap="round" stroke-linejoin="round"/>
<path d="M1157.14 2500.76C1201.31 2516.13 1237.16 2532.77 1237.16 2532.77" stroke="white" stroke-width="1.06897" stroke-linecap="round" stroke-linejoin="round"/>
<path d="M596.625 2600.78C596.625 2600.78 980.065 2470.76 1052.72 2475.56C1070.49 2477.03 1088.08 2480.11 1105.29 2484.76" stroke="white" stroke-width="1.06897" stroke-linecap="round" stroke-linejoin="round"/>
<path d="M661.197 2579.5C677.201 2561.74 687.203 2552.53 695.924 2538.21" stroke="white" stroke-width="1.06897" stroke-linecap="round" stroke-linejoin="round"/>
</svg>
