<svg width="3362" height="2994" viewBox="0 0 3362 2994" fill="none" xmlns="http://www.w3.org/2000/svg">
<path d="M216.985 2519.15H145.166" stroke="#263238" stroke-width="1.1133" stroke-miterlimit="10"/>
<path d="M3126.04 2519.15H330.578" stroke="#263238" stroke-width="1.1133" stroke-miterlimit="10"/>
<path d="M2074.27 2819.41C2205.58 2819.41 2312.02 2790.13 2312.02 2754.01C2312.02 2717.89 2205.58 2688.6 2074.27 2688.6C1942.96 2688.6 1836.52 2717.89 1836.52 2754.01C1836.52 2790.13 1942.96 2819.41 2074.27 2819.41Z" fill="#263238"/>
<path d="M845.442 2902.58C597.987 2902.58 561.451 2866.82 557.853 2837.95C557.035 2831.94 557.628 2825.82 559.583 2820.08C561.538 2814.34 564.803 2809.13 569.118 2804.86C635.774 2734.92 1019.9 2764.49 1551.43 2805.41C1625.59 2811.12 1702.26 2816.99 1780.89 2822.86C2317.97 2862.75 2534.21 2857.59 2578.88 2803.61C2587.95 2792.58 2589.83 2778.81 2584.82 2760.19C2563.54 2682.35 2279.08 2681.96 2171.36 2688.06C2168.89 2688.19 2166.47 2687.34 2164.63 2685.7C2162.78 2684.06 2161.66 2681.76 2161.5 2679.3C2161.42 2678.08 2161.59 2676.85 2161.99 2675.7C2162.4 2674.55 2163.02 2673.49 2163.84 2672.58C2164.65 2671.67 2165.64 2670.93 2166.74 2670.4C2167.84 2669.88 2169.04 2669.58 2170.26 2669.52C2211.49 2667.09 2573.71 2648.86 2602.74 2755.57C2609.39 2780.14 2606.34 2799.78 2593.19 2815.74C2543.05 2876.6 2337.76 2883.1 1779.56 2841.63C1700.85 2835.76 1624.18 2829.9 1550.02 2824.18C1043.37 2785.07 643.128 2754.32 582.575 2817.93C580.181 2820.2 578.364 2823.01 577.275 2826.13C576.186 2829.24 575.858 2832.57 576.316 2835.84C578.585 2854.31 623.256 2895.61 983.134 2881.22C1184.43 2873.39 1386.67 2851.25 1388.7 2851.02C1391.06 2850.92 1393.36 2851.73 1395.15 2853.26C1396.93 2854.8 1398.07 2856.96 1398.33 2859.3C1398.59 2861.65 1397.95 2864 1396.54 2865.89C1395.13 2867.78 1393.05 2869.06 1390.73 2869.48C1388.7 2869.48 1185.84 2891.7 983.916 2899.76C931.969 2901.64 885.967 2902.58 845.442 2902.58Z" fill="white" stroke="#263238" stroke-width="1.1133" stroke-miterlimit="10"/>
<path d="M1985.86 2811.43C2140.59 2811.43 2266.02 2686 2266.02 2531.28C2266.02 2376.55 2140.59 2251.12 1985.86 2251.12C1831.14 2251.12 1705.71 2376.55 1705.71 2531.28C1705.71 2686 1831.14 2811.43 1985.86 2811.43Z" fill="white"/>
<mask id="mask0_8_291" style="mask-type:luminance" maskUnits="userSpaceOnUse" x="1705" y="2251" width="562" height="561">
<path d="M1985.86 2811.43C2140.59 2811.43 2266.02 2686 2266.02 2531.27C2266.02 2376.55 2140.59 2251.12 1985.86 2251.12C1831.14 2251.12 1705.71 2376.55 1705.71 2531.27C1705.71 2686 1831.14 2811.43 1985.86 2811.43Z" fill="white"/>
</mask>
<g mask="url(#mask0_8_291)">
<path d="M1985.86 2811.43C2036.85 2811.46 2086.87 2797.58 2130.55 2771.28C2174.22 2744.97 2209.89 2707.25 2233.7 2662.17C2257.51 2617.09 2268.57 2566.36 2265.67 2515.46C2262.78 2464.56 2246.05 2415.41 2217.28 2373.32C2214.23 2495.36 2146.87 2675.54 1796.54 2737.5C1848.11 2785.07 1915.7 2811.46 1985.86 2811.43Z" fill="#92E3A9"/>
<path opacity="0.3" d="M1985.86 2811.43C2036.85 2811.46 2086.87 2797.58 2130.55 2771.28C2174.22 2744.97 2209.89 2707.25 2233.7 2662.17C2257.51 2617.09 2268.57 2566.36 2265.67 2515.46C2262.78 2464.56 2246.05 2415.41 2217.28 2373.32C2214.23 2495.36 2146.87 2675.54 1796.54 2737.5C1848.11 2785.07 1915.7 2811.46 1985.86 2811.43Z" fill="white"/>
<path d="M2123.71 2641.12C2073.75 2592.51 2013.08 2556.31 1946.59 2535.42M2123.71 2641.12H2138.58C2171.55 2608.43 2199.94 2571.43 2222.99 2531.12C2091.79 2392.49 1964.19 2406.65 1964.19 2406.65C1964.19 2406.65 2092.18 2392.49 2223.38 2531.27C2230.58 2518.37 2236.6 2506.24 2241.53 2495.05C2186.92 2418.54 2092.89 2366.36 2042.43 2358.53L2030.69 2355.72M2123.71 2641.12C2008.47 2639.47 1920.85 2621.64 1855.37 2597.77C1859.59 2420.81 1922.73 2302.91 1955.74 2253C1966.26 2251.78 1976.84 2251.15 1987.43 2251.12C1997.05 2251.12 2006.44 2251.67 2015.83 2252.53M2030.69 2355.72C2012.6 2352.43 1994.1 2352.17 1975.93 2354.94M2030.69 2355.72L2064.1 2261.84C2048.31 2257.32 2032.16 2254.21 2015.83 2252.53M2015.83 2252.53C1994.15 2287.5 1938.37 2399.22 1938.37 2620.85M2187 2584.08C2075.44 2475.34 1952.3 2469.63 1952.3 2469.63" stroke="#263238" stroke-width="1.1133" stroke-linecap="round" stroke-linejoin="round"/>
<path d="M1855.06 2598.24C1859.28 2421.28 1922.42 2303.38 1955.43 2253.46C1929.6 2256.36 1904.3 2262.84 1880.25 2272.71C1820.96 2359.7 1787.46 2461.67 1783.63 2566.87C1806.6 2579.14 1830.48 2589.62 1855.06 2598.24Z" stroke="#263238" stroke-width="1.1133" stroke-linecap="round" stroke-linejoin="round"/>
<path d="M1880.24 2272.48C1831.86 2292.42 1790.02 2325.5 1759.44 2367.97C1728.86 2410.43 1710.76 2460.6 1707.19 2512.81C1730.22 2533.99 1755.92 2552.09 1783.62 2566.64C1787.45 2461.44 1820.95 2359.46 1880.24 2272.48Z" stroke="#263238" stroke-width="1.1133" stroke-linecap="round" stroke-linejoin="round"/>
<path d="M2241.14 2495.05C2247.24 2481.58 2252.46 2467.73 2256.78 2453.59C2245.09 2413.69 2224.7 2376.87 2197.09 2345.78L2175.42 2418.07L2196.7 2345.78C2179.42 2326.4 2159.54 2309.49 2137.63 2295.55L2113.77 2384.82L2137.79 2295.95C2114.88 2281.29 2089.95 2270.09 2063.78 2262.7L2030.38 2356.58C2081.54 2363.93 2160.63 2394.05 2241.14 2495.05Z" stroke="#263238" stroke-width="1.1133" stroke-linecap="round" stroke-linejoin="round"/>
<path d="M2001.35 2747.59C2033.95 2727.88 2065.04 2705.78 2094.37 2681.48C2110.41 2668.03 2139.83 2641.35 2140.77 2641.35C2139.83 2641.35 2196 2577.98 2214.62 2544.89C2214.62 2545.36 2222.91 2531.74 2222.44 2531.27C2221.97 2530.8 2229.17 2519.46 2228.7 2518.99C2233.26 2511.32 2237.24 2503.32 2240.59 2495.05C2246.69 2481.58 2251.92 2467.73 2256.24 2453.59C2263.71 2479.15 2267.5 2505.66 2267.51 2532.29C2267.51 2536.67 2267.51 2540.43 2267.51 2544.5C2149.22 2710.59 2058.07 2781.78 2000.73 2813C1996.11 2813 1991.42 2813 1986.64 2813C1957.96 2813 1929.44 2808.62 1902.07 2800.01C1936.15 2784.47 1969.3 2766.96 2001.35 2747.59ZM2001.35 2747.59H2003.39" stroke="#263238" stroke-width="1.1133" stroke-linecap="round" stroke-linejoin="round"/>
<path d="M2267.5 2544.5C2149.21 2710.59 2058.07 2781.78 2001.19 2812.29C2070.94 2808.78 2136.88 2779.39 2186.12 2729.88C2235.36 2680.36 2264.38 2614.26 2267.5 2544.5Z" stroke="#263238" stroke-width="1.1133" stroke-linecap="round" stroke-linejoin="round"/>
<path d="M1767.74 2707.22C1802.46 2750.86 1849.38 2783.16 1902.54 2800.01C1936.62 2784.47 1969.76 2766.97 2001.82 2747.59C1935.01 2759.95 1830.49 2729.29 1767.74 2707.22Z" stroke="#263238" stroke-width="1.1133" stroke-linecap="round" stroke-linejoin="round"/>
<path d="M2001.82 2747.59C2034.41 2727.88 2065.51 2705.78 2094.84 2681.48C1893.07 2702.14 1768.6 2639.63 1715.72 2604.11C1725.7 2641.73 1743.42 2676.85 1767.74 2707.22C1830.49 2729.29 1935.01 2759.95 2001.82 2747.59Z" stroke="#263238" stroke-width="1.1133" stroke-linecap="round" stroke-linejoin="round"/>
<path d="M2123.71 2641.27H2138.57C2125.35 2654.57 2110.88 2668.03 2094.84 2681.49C1893.08 2702.14 1768.6 2639.63 1715.72 2604.27C1709.55 2580.83 1706.42 2556.69 1706.41 2532.45C1706.41 2525.96 1706.72 2519.62 1707.19 2513.2C1724.25 2529.24 1758.9 2565.07 1855.05 2598.4C1920.85 2621.79 2008.47 2639.63 2123.71 2641.27ZM2123.71 2641.27C2124.8 2642.29 2125.9 2643.31 2126.92 2644.4" stroke="#263238" stroke-width="1.1133" stroke-linecap="round" stroke-linejoin="round"/>
</g>
<path d="M1985.86 2811.43C2140.59 2811.43 2266.02 2686 2266.02 2531.28C2266.02 2376.55 2140.59 2251.12 1985.86 2251.12C1831.14 2251.12 1705.71 2376.55 1705.71 2531.28C1705.71 2686 1831.14 2811.43 1985.86 2811.43Z" stroke="#263238" stroke-width="1.1133" stroke-linecap="round" stroke-linejoin="round"/>
<path d="M2501.89 2052.48C2501.89 2052.48 2482.73 1990.29 2426.87 1967.91C2387.75 1952.26 2343.39 1956.49 2303.1 1963.45C2228.15 1976.52 2162.75 2006.32 2091.87 2031.75C2091.87 2031.75 2122.22 2020.56 2246.69 2081.27C2292.54 2103.57 2344.96 2120.94 2397.37 2119.76C2439.39 2118.82 2504.01 2106.78 2501.89 2052.48Z" fill="#92E3A9"/>
<path d="M2508.62 1869.65C2508.62 1869.65 2508.62 1804.48 2461.68 1767C2428.98 1740.87 2385.01 1731.88 2344.33 1726.95C2268.76 1717.79 2197.56 1727.42 2122.15 1731.25C2122.15 1731.25 2154.46 1729.37 2256.08 1823.41C2293.56 1857.99 2338.78 1889.75 2389.08 1903.76C2429.61 1915.02 2494.85 1922.22 2508.62 1869.65Z" fill="#92E3A9"/>
<path d="M2637.01 2111.47C2637.01 2111.47 2586.23 2070.71 2586.08 2010.55C2586.08 1968.69 2606.18 1928.72 2627.54 1893.9C2667.28 1828.97 2719.07 1779.21 2768.99 1722.49C2768.99 1722.49 2747.39 1746.59 2757.88 1884.67C2761.79 1935.52 2758.5 1990.68 2738.08 2038.95C2722.05 2077.75 2687.08 2133.38 2637.01 2111.47Z" fill="#92E3A9"/>
<path d="M2816.94 2211.45C2816.94 2211.45 2809.74 2146.75 2852.15 2104.04C2881.56 2074.39 2924.2 2060.3 2963.87 2050.76C3037.88 2032.92 3109.69 2034.25 3185.03 2029.32C3185.03 2029.32 3152.8 2031.12 3062.68 2136.27C3029.5 2175.39 2988.27 2211.77 2939.69 2231.56C2900.97 2247.44 2836.97 2262.07 2816.94 2211.45Z" fill="#92E3A9"/>
<path d="M2805.44 1980.74C2805.44 1980.74 2740.9 1971.9 2709.92 1920.34C2688.33 1884.51 2685.12 1839.76 2685.51 1798.92C2686.29 1722.88 2705.23 1653.49 2718.92 1579.24C2718.92 1579.24 2712.74 1611 2792.69 1724.05C2822.11 1765.75 2847.45 1814.73 2855.28 1866.67C2860.83 1908.37 2859.35 1974.01 2805.44 1980.74Z" fill="#92E3A9"/>
<path d="M2991.17 1864.87C2991.17 1864.87 3037.56 1910.56 3097.33 1903.99C3138.88 1899.22 3176.27 1874.42 3208.35 1849.23C3268.12 1802.29 3311.54 1744.86 3362 1688.77C3362 1688.77 3340.64 1712.94 3202.25 1718.65C3151.31 1720.77 3096.94 1730.39 3051.33 1756.36C3014.72 1776.86 2963.63 1818.09 2991.17 1864.87Z" fill="#92E3A9"/>
<path d="M2937.43 1819.73C2937.43 1819.73 3002.2 1826.23 3044.45 1783.43C3073.87 1753.63 3087.48 1710.91 3096.63 1671.09C3113.69 1597 3111.65 1525.1 3115.72 1449.76C3115.72 1449.76 3114.31 1482 3010.03 1573.22C2971.69 1606.78 2935.31 1648.4 2916.15 1697.14C2900.58 1736.34 2886.57 1800.49 2937.43 1819.73Z" fill="#92E3A9"/>
<path d="M2706.09 2450.38L2594.21 2175.07L2465.2 1856.74" stroke="#263238" stroke-width="1.1133" stroke-linecap="round" stroke-linejoin="round"/>
<path d="M2731.9 2403.05L2843.7 2020.25L2964.18 1783.67" stroke="#263238" stroke-width="1.1133" stroke-linecap="round" stroke-linejoin="round"/>
<path d="M2774.85 2252.53L2886.73 2187.98" stroke="#263238" stroke-width="1.1133" stroke-linecap="round" stroke-linejoin="round"/>
<path d="M2843.7 2020.25L2787.76 1895.46" stroke="#263238" stroke-width="1.1133" stroke-linecap="round" stroke-linejoin="round"/>
<path d="M2913.72 1896.09L3050.16 1835.23" stroke="#263238" stroke-width="1.1133" stroke-linecap="round" stroke-linejoin="round"/>
<path d="M2615.73 2226.71L2663.06 2037.46" stroke="#263238" stroke-width="1.1133" stroke-linecap="round" stroke-linejoin="round"/>
<path d="M2552.98 2082.84L2443.69 2024.55" stroke="#263238" stroke-width="1.1133" stroke-linecap="round" stroke-linejoin="round"/>
<path d="M2763.43 2587.99H2670.18C2654.93 2587.99 2640.17 2582.66 2628.43 2572.94C2616.69 2563.21 2608.71 2549.69 2605.87 2534.72L2572.7 2360.02H2860.91L2827.82 2534.72C2824.96 2549.7 2816.97 2563.22 2805.22 2572.94C2793.46 2582.67 2778.69 2587.99 2763.43 2587.99Z" fill="#263238" stroke="#263238" stroke-width="1.1133" stroke-linecap="round" stroke-linejoin="round"/>
<path d="M138.674 1522.99C138.674 1501.32 148.688 1485.36 171.219 1485.36C193.751 1485.36 204.156 1501.01 204.156 1522.99V1599.03C204.156 1620.71 194.142 1636.67 171.219 1636.67C148.297 1636.67 138.674 1621.02 138.674 1599.03V1522.99ZM148.453 1599.66C148.453 1615.86 154.868 1627.75 171.219 1627.75C187.57 1627.75 194.69 1615.86 194.69 1599.66V1522.37C194.69 1506.17 188.118 1494.28 171.219 1494.28C154.321 1494.28 148.453 1506.17 148.453 1522.37V1599.66Z" fill="#263238"/>
<path d="M219.57 1522.99C219.57 1501.32 229.584 1485.36 252.116 1485.36C274.647 1485.36 285.052 1501.01 285.052 1522.99V1599.03C285.052 1620.71 275.038 1636.67 252.116 1636.67C229.193 1636.67 219.57 1621.02 219.57 1599.03V1522.99ZM229.35 1599.66C229.35 1615.86 235.765 1627.75 252.116 1627.75C268.467 1627.75 275.586 1615.86 275.586 1599.66V1522.37C275.586 1506.17 269.014 1494.28 252.116 1494.28C235.217 1494.28 229.35 1506.17 229.35 1522.37V1599.66Z" fill="#263238"/>
<path d="M332.068 1486.61C355.069 1486.61 363.988 1501.09 363.988 1522.76V1538.95C363.988 1562.42 353.113 1574.16 329.565 1574.16H311.023V1635.41H301.244V1486.77L332.068 1486.61ZM329.565 1565.24C346.776 1565.24 354.209 1557.41 354.209 1539.58V1522.13C354.209 1506.01 348.654 1495.53 332.068 1495.53H311.023V1565.24H329.565Z" fill="#263238"/>
<path d="M441.363 1522.52V1525.73H431.975V1521.9C431.975 1506.25 426.029 1494.28 409.913 1494.28C393.796 1494.28 387.772 1505.78 387.772 1521.43C387.772 1557.49 441.519 1558.12 441.519 1599.19C441.519 1620.63 432.209 1636.35 409.443 1636.35C386.677 1636.35 377.367 1620.71 377.367 1599.19V1591.37H386.755V1599.66C386.755 1615.31 392.858 1627.04 409.209 1627.04C425.559 1627.04 431.74 1615.54 431.74 1599.66C431.74 1563.91 377.993 1563.28 377.993 1521.9C377.993 1499.52 387.772 1485.13 409.287 1484.89C430.801 1484.66 441.363 1501.09 441.363 1522.52Z" fill="#263238"/>
<path d="M465.771 1616.72V1635.41H456.227V1616.72H465.771Z" fill="#263238"/>
<path d="M492.373 1616.72V1635.41H482.75V1616.72H492.373Z" fill="#263238"/>
<path d="M518.895 1616.72V1635.41H509.037V1616.72H518.895Z" fill="#263238"/>
<path d="M170.123 1703.09C193.124 1703.09 202.043 1717.48 202.043 1739.15V1755.35C202.043 1778.82 191.168 1790.63 167.62 1790.63H149.156V1851.81H139.299V1703.16L170.123 1703.09ZM167.62 1781.32C184.831 1781.32 192.263 1773.5 192.263 1755.58V1738.13C192.263 1722.02 186.709 1711.61 170.123 1711.61H149.156V1781.32H167.62Z" fill="#263238"/>
<path d="M228.171 1818.72L220.739 1851.65H211.742L244.209 1703.01H258.683L291.854 1851.65H282.153L274.33 1818.72H228.171ZM229.658 1810.19H273L250.859 1714.12L229.658 1810.19Z" fill="#263238"/>
<path d="M369.935 1739.39V1750.42H360.391V1738.76C360.391 1723.11 354.288 1710.68 337.859 1710.68C321.43 1710.68 315.406 1722.8 315.406 1738.76V1816.13C315.406 1831.78 321.508 1843.91 337.859 1843.91C354.21 1843.91 360.391 1832.02 360.391 1816.13V1783.98H340.832V1775.06H369.935V1815.43C369.935 1836.95 360.547 1853.06 337.859 1853.06C315.171 1853.06 305.783 1836.95 305.783 1815.43V1739.39C305.783 1717.95 315.093 1701.76 337.859 1701.76C360.625 1701.76 369.935 1717.95 369.935 1739.39Z" fill="#263238"/>
<path d="M436.666 1771.78V1780.7H396.062V1842.73H444.959V1851.65H386.283V1703.01H444.959V1711.93H396.062V1771.78H436.666Z" fill="#263238"/>
<path d="M502.778 1851.81H493.859V1703.17H506.612L551.205 1828.34V1703.17H560.124V1851.81H549.327L502.387 1718.81L502.778 1851.81Z" fill="#263238"/>
<path d="M576.314 1739.39C576.314 1717.72 586.25 1701.76 608.782 1701.76C631.313 1701.76 641.718 1717.4 641.718 1739.39V1815.43C641.718 1837.1 631.783 1853.06 608.782 1853.06C585.781 1853.06 576.314 1837.41 576.314 1815.43V1739.39ZM586.094 1816.13C586.094 1832.25 592.431 1844.14 608.782 1844.14C625.133 1844.14 632.252 1832.25 632.252 1816.13V1738.76C632.252 1722.57 625.68 1710.68 608.782 1710.68C591.883 1710.68 586.094 1722.57 586.094 1738.76V1816.13Z" fill="#263238"/>
<path d="M682.952 1851.81V1712H652.832V1703.09H723.243V1712H692.81V1851.81H682.952Z" fill="#263238"/>
<path d="M816.419 1775.53V1784.45H778.006V1851.81H768.227V1703.17H824.712V1712.08H777.771V1775.61L816.419 1775.53Z" fill="#263238"/>
<path d="M838.947 1739.39C838.947 1717.72 848.961 1701.76 871.493 1701.76C894.024 1701.76 904.429 1717.4 904.429 1739.39V1815.43C904.429 1837.1 894.415 1853.06 871.493 1853.06C848.57 1853.06 838.947 1837.41 838.947 1815.43V1739.39ZM848.727 1816.13C848.727 1832.25 855.142 1844.14 871.493 1844.14C887.844 1844.14 894.963 1832.25 894.963 1816.13V1738.76C894.963 1722.57 888.391 1710.68 871.493 1710.68C854.594 1710.68 848.727 1722.57 848.727 1738.76V1816.13Z" fill="#263238"/>
<path d="M929.935 1815.9C929.935 1831.55 935.881 1844.14 952.232 1844.14C968.583 1844.14 974.529 1831.86 974.529 1815.9V1703.09H983.682V1815.43C983.682 1836.71 974.763 1853.06 952.388 1853.06C930.013 1853.06 920.469 1836.71 920.469 1815.43V1703.09H930.248L929.935 1815.9Z" fill="#263238"/>
<path d="M1009.74 1851.81H1000.82V1703.17H1013.57L1058.16 1828.34V1703.17H1067.08V1851.81H1056.28L1009.74 1718.81V1851.81Z" fill="#263238"/>
<path d="M1116.29 1703.09C1139.29 1703.09 1149.22 1718.11 1149.22 1740.01V1814.8C1149.22 1836.71 1139.29 1851.81 1116.29 1851.81H1083.59V1703.16L1116.29 1703.09ZM1116.29 1842.89C1132.87 1842.89 1139.76 1831.62 1139.76 1815.27V1739.62C1139.76 1723.27 1132.8 1712 1116.29 1712H1093.52V1842.89H1116.29Z" fill="#263238"/>
<path d="M1488.13 2219.9C1313.98 2219.9 1209.31 2065.39 1172.15 1929.5L1170.89 1924.72C1168.91 1918.13 1168.28 1911.21 1169.04 1904.37C1169.8 1897.54 1171.93 1890.92 1175.3 1884.92C1178.67 1878.93 1183.22 1873.67 1188.67 1869.47C1194.12 1865.27 1200.36 1862.21 1207.02 1860.48C1213.68 1858.75 1220.62 1858.38 1227.42 1859.39C1234.23 1860.4 1240.76 1862.78 1246.62 1866.37C1252.49 1869.97 1257.57 1874.71 1261.57 1880.31C1265.56 1885.91 1268.38 1892.27 1269.86 1898.98L1270.8 1902.5C1299.04 2005.93 1375.95 2124.14 1499.32 2117.34C1522.52 2116.53 1545.29 2110.86 1566.16 2100.68C1587.02 2090.51 1605.51 2076.06 1620.43 2058.27C1688.1 1980.66 1718.38 1811.91 1711.65 1726.79C1711.01 1721.33 1711.48 1715.79 1713.03 1710.52C1714.58 1705.24 1717.18 1700.33 1720.67 1696.08C1724.16 1691.83 1728.47 1688.33 1733.35 1685.79C1738.22 1683.24 1743.56 1681.7 1749.04 1681.27C1754.52 1680.83 1760.04 1681.5 1765.25 1683.24C1770.47 1684.99 1775.28 1687.76 1779.4 1691.4C1783.52 1695.05 1786.86 1699.48 1789.23 1704.45C1791.59 1709.41 1792.93 1714.8 1793.17 1720.3C1800.99 1815.04 1790.67 2018.68 1697.49 2125.47C1673.64 2153.55 1644.24 2176.39 1611.13 2192.55C1578.02 2208.71 1541.92 2217.83 1505.11 2219.35C1499.4 2219.74 1493.69 2219.9 1488.13 2219.9Z" fill="white"/>
<mask id="mask1_8_291" style="mask-type:luminance" maskUnits="userSpaceOnUse" x="1168" y="1681" width="628" height="539">
<path d="M1488.13 2219.9C1313.98 2219.9 1209.31 2065.39 1172.14 1929.5L1170.89 1924.72C1168.91 1918.13 1168.28 1911.21 1169.04 1904.37C1169.8 1897.54 1171.92 1890.92 1175.3 1884.92C1178.67 1878.93 1183.21 1873.67 1188.66 1869.47C1194.12 1865.27 1200.36 1862.21 1207.02 1860.48C1213.67 1858.75 1220.61 1858.38 1227.42 1859.39C1234.22 1860.4 1240.76 1862.78 1246.62 1866.37C1252.49 1869.97 1257.57 1874.71 1261.56 1880.31C1265.56 1885.91 1268.38 1892.27 1269.86 1898.98L1270.8 1902.51C1299.04 2005.93 1375.94 2124.14 1499.32 2117.34C1522.52 2116.53 1545.29 2110.86 1566.15 2100.68C1587.02 2090.51 1605.51 2076.06 1620.43 2058.27C1688.1 1980.66 1718.38 1811.91 1711.65 1726.79C1711.01 1721.33 1711.48 1715.79 1713.03 1710.52C1714.58 1705.24 1717.18 1700.33 1720.67 1696.08C1724.16 1691.83 1728.47 1688.33 1733.35 1685.79C1738.22 1683.24 1743.56 1681.7 1749.04 1681.27C1754.52 1680.83 1760.04 1681.5 1765.25 1683.24C1770.47 1684.99 1775.28 1687.76 1779.4 1691.41C1783.52 1695.05 1786.86 1699.49 1789.22 1704.45C1791.59 1709.41 1792.93 1714.8 1793.17 1720.3C1800.99 1815.04 1790.66 2018.68 1697.49 2125.47C1673.64 2153.55 1644.23 2176.39 1611.12 2192.55C1578.02 2208.71 1541.92 2217.83 1505.11 2219.35C1499.4 2219.75 1493.69 2219.9 1488.13 2219.9Z" fill="white"/>
</mask>
<g mask="url(#mask1_8_291)">
<path d="M1749.12 1682.75C1738.31 1683.62 1728.29 1688.76 1721.27 1697.01C1714.24 1705.27 1710.78 1715.98 1711.65 1726.79C1714.93 1768.33 1709.38 1829.75 1694.98 1891.08C1715.54 1890.21 1736.1 1892.86 1755.77 1898.91C1751.12 1957.77 1730.45 2014.23 1696 2062.18C1620.03 2167.72 1506.12 2201.44 1417.48 2188.77C1377.82 2183.13 1332.37 2162.32 1294.11 2140.96C1346.02 2191.59 1415.63 2219.96 1488.13 2220.06C1493.68 2220.06 1499.4 2220.06 1505.11 2219.59C1541.92 2218.07 1578.01 2208.94 1611.12 2192.78C1644.23 2176.63 1673.64 2153.79 1697.48 2125.71C1790.66 2018.92 1800.68 1815.28 1793.17 1720.53C1792.78 1715.15 1791.33 1709.9 1788.9 1705.08C1786.48 1700.26 1783.12 1695.97 1779.02 1692.46C1774.93 1688.94 1770.18 1686.27 1765.04 1684.61C1759.91 1682.94 1754.5 1682.31 1749.12 1682.75Z" fill="#92E3A9"/>
<path opacity="0.5" d="M1749.12 1682.75C1738.31 1683.62 1728.29 1688.76 1721.27 1697.01C1714.24 1705.27 1710.78 1715.98 1711.65 1726.79C1714.93 1768.33 1709.38 1829.75 1694.98 1891.08C1715.54 1890.21 1736.1 1892.86 1755.77 1898.91C1751.12 1957.77 1730.45 2014.23 1696 2062.18C1620.03 2167.72 1506.12 2201.44 1417.48 2188.77C1377.82 2183.13 1332.37 2162.32 1294.11 2140.96C1346.02 2191.59 1415.63 2219.96 1488.13 2220.06C1493.68 2220.06 1499.4 2220.06 1505.11 2219.59C1541.92 2218.07 1578.01 2208.94 1611.12 2192.78C1644.23 2176.63 1673.64 2153.79 1697.48 2125.71C1790.66 2018.92 1800.68 1815.28 1793.17 1720.53C1792.78 1715.15 1791.33 1709.9 1788.9 1705.08C1786.48 1700.26 1783.12 1695.97 1779.02 1692.46C1774.93 1688.94 1770.18 1686.27 1765.04 1684.61C1759.91 1682.94 1754.5 1682.31 1749.12 1682.75Z" fill="white"/>
</g>
<path d="M1488.13 2219.9C1313.98 2219.9 1209.31 2065.39 1172.15 1929.5L1170.89 1924.72C1168.91 1918.13 1168.28 1911.21 1169.04 1904.37C1169.8 1897.54 1171.93 1890.92 1175.3 1884.92C1178.67 1878.93 1183.22 1873.67 1188.67 1869.47C1194.12 1865.27 1200.36 1862.21 1207.02 1860.48C1213.68 1858.75 1220.62 1858.38 1227.42 1859.39C1234.23 1860.4 1240.76 1862.78 1246.62 1866.37C1252.49 1869.97 1257.57 1874.71 1261.57 1880.31C1265.56 1885.91 1268.38 1892.27 1269.86 1898.98L1270.8 1902.5C1299.04 2005.93 1375.95 2124.14 1499.32 2117.34C1522.52 2116.53 1545.29 2110.86 1566.16 2100.68C1587.02 2090.51 1605.51 2076.06 1620.43 2058.27C1688.1 1980.66 1718.38 1811.91 1711.65 1726.79C1711.01 1721.33 1711.48 1715.79 1713.03 1710.52C1714.58 1705.24 1717.18 1700.33 1720.67 1696.08C1724.16 1691.83 1728.47 1688.33 1733.35 1685.79C1738.22 1683.24 1743.56 1681.7 1749.04 1681.27C1754.52 1680.83 1760.04 1681.5 1765.25 1683.24C1770.47 1684.99 1775.28 1687.76 1779.4 1691.4C1783.52 1695.05 1786.86 1699.48 1789.23 1704.45C1791.59 1709.41 1792.93 1714.8 1793.17 1720.3C1800.99 1815.04 1790.67 2018.68 1697.49 2125.47C1673.64 2153.55 1644.24 2176.39 1611.13 2192.55C1578.02 2208.71 1541.92 2217.83 1505.11 2219.35C1499.4 2219.74 1493.69 2219.9 1488.13 2219.9Z" stroke="#263238" stroke-width="1.1133" stroke-linecap="round" stroke-linejoin="round"/>
<path d="M1387.68 2114.05C1391.83 2094.88 1345.99 2124.85 1307.57 2152.78C1321.78 2164.78 1337.08 2175.44 1353.26 2184.62C1366.95 2162.32 1383.69 2132.51 1387.68 2114.05Z" fill="#92E3A9" stroke="#263238" stroke-width="1.1133" stroke-linecap="round" stroke-linejoin="round"/>
<path d="M1488.14 2219.9C1493.69 2219.9 1499.41 2219.9 1505.12 2219.43C1521.74 2218.5 1538.25 2216.17 1554.48 2212.47C1532.89 2184.31 1503.16 2147.07 1494.63 2144.25C1484.85 2140.96 1466 2188.92 1455.52 2218.02C1466.34 2219.29 1477.24 2219.91 1488.14 2219.9Z" fill="#92E3A9" stroke="#263238" stroke-width="1.1133" stroke-linecap="round" stroke-linejoin="round"/>
<path d="M1270.8 1902.51L1269.86 1898.99C1268.38 1892.27 1265.56 1885.92 1261.57 1880.31C1257.57 1874.71 1252.49 1869.97 1246.62 1866.37C1240.76 1862.78 1234.23 1860.4 1227.42 1859.39C1220.62 1858.38 1213.68 1858.75 1207.02 1860.48C1200.36 1862.22 1194.12 1865.27 1188.67 1869.47C1183.22 1873.67 1178.67 1878.93 1175.3 1884.92C1171.93 1890.92 1169.8 1897.54 1169.04 1904.38C1168.28 1911.21 1168.91 1918.14 1170.89 1924.72L1172.15 1929.5C1185.19 1977.22 1205.23 2022.75 1231.6 2064.61L1324.78 2020.25C1300.35 1984.29 1282.1 1944.49 1270.8 1902.51Z" fill="#92E3A9" stroke="#263238" stroke-width="1.1133" stroke-linecap="round" stroke-linejoin="round"/>
<path d="M1697.49 2125.47C1704.65 2117.18 1711.28 2108.46 1717.36 2099.34C1687.79 2089.25 1643.51 2075.32 1627.08 2076.81C1607.6 2078.61 1634.04 2141.2 1647.65 2170.69C1665.98 2157.62 1682.7 2142.44 1697.49 2125.47Z" fill="#92E3A9" stroke="#263238" stroke-width="1.1133" stroke-linecap="round" stroke-linejoin="round"/>
<path d="M1699.14 1958.29C1696.01 1964.55 1734.26 1992.4 1760.08 2010.31C1768.27 1985.94 1774.86 1961.06 1779.8 1935.83C1748.5 1942.09 1702.19 1952.19 1699.14 1958.29Z" fill="#92E3A9" stroke="#263238" stroke-width="1.1133" stroke-linecap="round" stroke-linejoin="round"/>
<path d="M1792.47 1842.58C1794.19 1820.28 1795.05 1799 1795.13 1779.44C1768.22 1794.23 1736.3 1814.73 1736.3 1828.18C1736.3 1841.64 1766.18 1843.28 1792.47 1842.58Z" fill="#92E3A9" stroke="#263238" stroke-width="1.1133" stroke-linecap="round" stroke-linejoin="round"/>
<path d="M1371.26 1237.28C1371.26 1237.28 1295.29 1457.28 1336.21 1628.45C1348.33 1678.54 1371.85 1725.16 1404.95 1764.66C1438.05 1804.17 1479.82 1835.49 1527.02 1856.19C1527.02 1856.19 1416.01 1895.31 1440.96 1955.47C1465.92 2015.63 1561.6 1976.91 1592.81 1957.43C1624.03 1937.95 1663.23 1879.58 1668.7 1840.62C1672.18 1820.72 1673.49 1800.49 1672.61 1780.3C1672.61 1780.3 1799.12 1766.69 1884.78 1696.59C1884.78 1696.59 1960.75 1756.91 2015.28 1745.26C2069.81 1733.6 2147.65 1636.2 2139.83 1548.65C2132 1461.11 2081.54 1461.19 2050.72 1474.49C2034.72 1480.54 2020.13 1489.8 2007.85 1501.71C2007.85 1501.71 2052.6 1446.95 2007.85 1371.3C1994.64 1349.11 1976.55 1330.21 1954.96 1316.05C1933.37 1301.88 1908.84 1292.82 1883.22 1289.54C1883.22 1289.54 1859.75 1164.91 1789.81 1118.21C1719.87 1071.5 1470.53 1023.15 1371.26 1237.28Z" fill="white"/>
<mask id="mask2_8_291" style="mask-type:luminance" maskUnits="userSpaceOnUse" x="1324" y="1078" width="817" height="910">
<path d="M1371.25 1237.28C1371.25 1237.28 1295.29 1457.27 1336.2 1628.45C1348.32 1678.54 1371.85 1725.16 1404.95 1764.66C1438.04 1804.16 1479.82 1835.49 1527.02 1856.19C1527.02 1856.19 1416 1895.31 1440.96 1955.47C1465.91 2015.63 1561.6 1976.91 1592.81 1957.43C1624.03 1937.95 1663.22 1879.58 1668.7 1840.62C1672.18 1820.72 1673.49 1800.49 1672.61 1780.3C1672.61 1780.3 1799.11 1766.69 1884.78 1696.59C1884.78 1696.59 1960.75 1756.91 2015.28 1745.25C2069.8 1733.6 2147.65 1636.2 2139.82 1548.65C2132 1461.11 2081.54 1461.19 2050.72 1474.49C2034.71 1480.54 2020.12 1489.8 2007.84 1501.71C2007.84 1501.71 2052.59 1446.95 2007.84 1371.3C1994.64 1349.1 1976.55 1330.21 1954.96 1316.05C1933.36 1301.88 1908.83 1292.82 1883.22 1289.54C1883.22 1289.54 1859.75 1164.91 1789.8 1118.21C1719.86 1071.5 1470.53 1023.15 1371.25 1237.28Z" fill="white"/>
</mask>
<g mask="url(#mask2_8_291)">
<path d="M1949.64 1312.93C1913.52 1373.18 1863.54 1423.93 1803.86 1460.97C1744.18 1498.01 1676.52 1520.27 1606.5 1525.89C1451.6 1539.5 1364.76 1508.99 1324.86 1487.79C1329.7 1402.67 1345.48 1318.53 1371.8 1237.44C1471.08 1023.31 1720.25 1071.97 1790.35 1118.68C1860.45 1165.38 1883.76 1290.01 1883.76 1290.01C1907.09 1292.94 1929.53 1300.75 1949.64 1312.93ZM2050.71 1474.49C2034.71 1480.54 2020.12 1489.8 2007.84 1501.71C2017.32 1488.65 2023.56 1473.53 2026.07 1457.59C1920.85 1510.01 1929.06 1621.88 1916 1621.88C1899.88 1621.88 1891.9 1565.63 1891.9 1565.63C1891.9 1565.63 1871.79 1645.98 1751.08 1702.3C1630.36 1758.63 1493.84 1714.35 1493.84 1714.35C1493.84 1714.35 1522.01 1778.66 1449.64 1770.6C1429.33 1768.66 1409.86 1761.55 1393.08 1749.95C1427.78 1796.21 1473.87 1832.71 1526.86 1855.88C1526.86 1855.88 1415.84 1895 1440.8 1955.16C1465.76 2015.32 1561.52 1976.59 1592.65 1957.11C1623.79 1937.63 1663.06 1879.27 1668.54 1840.31C1672.02 1820.4 1673.33 1800.18 1672.45 1779.99C1672.45 1779.99 1798.96 1766.38 1884.62 1696.28C1884.62 1696.28 1960.59 1756.6 2015.12 1744.94C2069.65 1733.29 2147.49 1635.88 2139.67 1548.34C2131.84 1460.8 2081.54 1461.19 2050.71 1474.49Z" fill="#92E3A9"/>
<path opacity="0.5" d="M1949.64 1312.93C1913.52 1373.18 1863.54 1423.93 1803.86 1460.97C1744.18 1498.01 1676.52 1520.27 1606.5 1525.89C1451.6 1539.5 1364.76 1508.99 1324.86 1487.79C1329.7 1402.67 1345.48 1318.53 1371.8 1237.44C1471.08 1023.31 1720.25 1071.97 1790.35 1118.68C1860.45 1165.38 1883.76 1290.01 1883.76 1290.01C1907.09 1292.94 1929.53 1300.75 1949.64 1312.93ZM2050.71 1474.49C2034.71 1480.54 2020.12 1489.8 2007.84 1501.71C2017.32 1488.65 2023.56 1473.53 2026.07 1457.59C1920.85 1510.01 1929.06 1621.88 1916 1621.88C1899.88 1621.88 1891.9 1565.63 1891.9 1565.63C1891.9 1565.63 1871.79 1645.98 1751.08 1702.3C1630.36 1758.63 1493.84 1714.35 1493.84 1714.35C1493.84 1714.35 1522.01 1778.66 1449.64 1770.6C1429.33 1768.66 1409.86 1761.55 1393.08 1749.95C1427.78 1796.21 1473.87 1832.71 1526.86 1855.88C1526.86 1855.88 1415.84 1895 1440.8 1955.16C1465.76 2015.32 1561.52 1976.59 1592.65 1957.11C1623.79 1937.63 1663.06 1879.27 1668.54 1840.31C1672.02 1820.4 1673.33 1800.18 1672.45 1779.99C1672.45 1779.99 1798.96 1766.38 1884.62 1696.28C1884.62 1696.28 1960.59 1756.6 2015.12 1744.94C2069.65 1733.29 2147.49 1635.88 2139.67 1548.34C2131.84 1460.8 2081.54 1461.19 2050.71 1474.49Z" fill="white"/>
<path d="M1673 1780.46C1631.02 1781.58 1589.33 1773.05 1551.15 1755.55C1512.98 1738.04 1479.32 1712.01 1452.77 1679.46" stroke="#263238" stroke-width="1.1133" stroke-linecap="round" stroke-linejoin="round"/>
</g>
<path d="M1371.26 1237.28C1371.26 1237.28 1295.29 1457.28 1336.21 1628.45C1348.33 1678.54 1371.85 1725.16 1404.95 1764.66C1438.05 1804.17 1479.82 1835.49 1527.02 1856.19C1527.02 1856.19 1416.01 1895.31 1440.96 1955.47C1465.92 2015.63 1561.6 1976.91 1592.81 1957.43C1624.03 1937.95 1663.23 1879.58 1668.7 1840.62C1672.18 1820.72 1673.49 1800.49 1672.61 1780.3C1672.61 1780.3 1799.12 1766.69 1884.78 1696.59C1884.78 1696.59 1960.75 1756.91 2015.28 1745.26C2069.81 1733.6 2147.65 1636.2 2139.83 1548.65C2132 1461.11 2081.54 1461.19 2050.72 1474.49C2034.72 1480.54 2020.13 1489.8 2007.85 1501.71C2007.85 1501.71 2052.6 1446.95 2007.85 1371.3C1994.64 1349.11 1976.55 1330.21 1954.96 1316.05C1933.37 1301.88 1908.84 1292.82 1883.22 1289.54C1883.22 1289.54 1859.75 1164.91 1789.81 1118.21C1719.87 1071.5 1470.53 1023.15 1371.26 1237.28Z" stroke="#263238" stroke-width="1.1133" stroke-linecap="round" stroke-linejoin="round"/>
<path d="M2007.84 1502.03C2007.84 1502.03 1967.01 1529.33 1947.53 1613.04" stroke="#263238" stroke-width="1.1133" stroke-linecap="round" stroke-linejoin="round"/>
<path d="M2082.87 1537.85C2078.1 1552.09 2065.03 1560.62 2053.77 1556.79C2042.5 1552.95 2037.34 1538.32 2042.11 1524.09C2046.88 1509.85 2059.95 1501.32 2071.21 1505.15C2082.48 1508.99 2087.72 1523.62 2082.87 1537.85Z" fill="white" stroke="#263238" stroke-width="1.1133" stroke-linecap="round" stroke-linejoin="round"/>
<path d="M2123.17 1563.2C2118.4 1577.44 2105.33 1585.97 2094.07 1582.14C2082.8 1578.3 2077.56 1563.67 2082.41 1549.44C2087.26 1535.2 2100.25 1526.67 2111.51 1530.5C2122.78 1534.34 2128.02 1548.97 2123.17 1563.2Z" fill="white" stroke="#263238" stroke-width="1.1133" stroke-linecap="round" stroke-linejoin="round"/>
<path d="M2131.77 1601.15C2130.21 1603.77 2127.94 1605.89 2125.22 1607.27C2122.5 1608.65 2119.44 1609.22 2116.41 1608.94C2113.37 1608.65 2110.48 1607.5 2108.07 1605.64C2105.66 1603.77 2103.82 1601.26 2102.78 1598.4C2101.74 1595.53 2101.53 1592.43 2102.19 1589.45C2102.84 1586.47 2104.32 1583.74 2106.46 1581.57C2108.61 1579.4 2111.32 1577.88 2114.29 1577.19C2117.26 1576.5 2120.36 1576.67 2123.24 1577.68C2127.4 1579.75 2130.6 1583.35 2132.19 1587.71C2133.77 1592.08 2133.62 1596.89 2131.77 1601.15Z" fill="white" stroke="#263238" stroke-width="1.1133" stroke-linecap="round" stroke-linejoin="round"/>
<path d="M2080.37 1653.25C2066.29 1678.68 2038.12 1689.94 2017.39 1678.44C1996.66 1666.94 1991.34 1637.13 2005.42 1611.71C2019.5 1586.28 2047.67 1575.02 2068.4 1586.52C2089.13 1598.02 2094.45 1627.82 2080.37 1653.25Z" fill="white" stroke="#263238" stroke-width="1.1133" stroke-linecap="round" stroke-linejoin="round"/>
<path d="M1527.02 1856.35C1553.24 1868.55 1583.05 1870.64 1610.73 1862.22" stroke="#263238" stroke-width="1.1133" stroke-linecap="round" stroke-linejoin="round"/>
<path d="M1441.35 1955.63C1441.35 1955.63 1449.17 1922.53 1497.76 1899.22" stroke="#263238" stroke-width="1.1133" stroke-linecap="round" stroke-linejoin="round"/>
<path d="M1490.02 1984.89C1490.02 1984.89 1509.5 1937.94 1542.59 1916.74" stroke="#263238" stroke-width="1.1133" stroke-linecap="round" stroke-linejoin="round"/>
<path d="M722.302 1446.32C714.026 1439.72 707.429 1431.25 703.051 1421.61C698.673 1411.97 696.637 1401.43 697.111 1390.85V1205.36H218.63C206.942 1205.8 195.298 1203.7 184.495 1199.22C173.692 1194.74 163.986 1187.97 156.043 1179.39C140.393 1162.83 131.806 1140.83 132.103 1118.05C132.04 1099.54 137.487 1081.43 147.75 1066.03L606.046 345.802C640.469 292.655 686.21 266.081 743.269 266.081C773.945 265.039 803.898 275.535 827.214 295.497C849.589 315.056 860.777 344.133 860.777 382.728V1082.85H982.509C990.917 1082.34 999.333 1083.69 1007.16 1086.8C1014.99 1089.91 1022.04 1094.7 1027.81 1100.84C1038.1 1112.9 1043.75 1128.24 1043.75 1144.1C1043.75 1159.96 1038.1 1175.3 1027.81 1187.37C1022.04 1193.51 1014.99 1198.3 1007.16 1201.41C999.333 1204.52 990.917 1205.87 982.509 1205.36H859.916V1390.85C860.424 1401.35 858.491 1411.82 854.269 1421.45C850.047 1431.07 843.652 1439.59 835.585 1446.32C819.837 1459.53 799.884 1466.66 779.335 1466.43C758.559 1466.59 738.381 1459.48 722.302 1446.32ZM696.798 1082.85V438.196L295.534 1082.85H696.798Z" fill="#263238"/>
<path d="M1386.28 1450.08C1339.38 1429.61 1297.85 1398.58 1264.93 1359.4C1231.87 1318.01 1206.06 1271.33 1188.58 1221.32C1168.77 1167.3 1154.84 1111.3 1147.04 1054.29C1138.89 992.223 1134.97 929.674 1135.3 867.076C1135.3 454.677 1276.12 248.478 1557.76 248.478C1839.41 248.478 1979.89 454.677 1979.21 867.076C1979.49 929.375 1975.7 991.625 1967.87 1053.43C1960.32 1110.45 1946.52 1166.46 1926.72 1220.46C1909.24 1270.47 1883.42 1317.15 1850.36 1358.54C1817.4 1397.77 1775.89 1428.92 1729.02 1449.61C1675.13 1473.43 1616.68 1485.18 1557.76 1484.03C1498.82 1485.21 1440.32 1473.63 1386.28 1450.08ZM1641.01 1331.71C1664.57 1321.66 1685.96 1307.12 1703.98 1288.91C1722.23 1269.48 1737.24 1247.24 1748.42 1223.04C1760.76 1197.4 1770.74 1170.69 1778.23 1143.24C1786.12 1113.33 1791.87 1082.9 1795.44 1052.18C1799.67 1018.28 1802.48 987.218 1803.89 959.001C1805.3 930.785 1805.98 900.143 1805.92 867.076C1805.92 832.392 1805.25 800.368 1803.89 771.004C1802.53 741.64 1799.59 710.138 1795.05 676.497C1791.15 645.794 1785.27 615.376 1777.45 585.433C1770.04 558.258 1760.06 531.851 1747.64 506.573C1736.37 482.756 1721.34 460.909 1703.12 441.873C1685.21 424.031 1663.94 409.913 1640.54 400.331C1587.05 379.678 1527.78 379.678 1474.29 400.331C1451.06 409.797 1429.95 423.785 1412.17 441.482C1394.09 460.435 1379.09 482.109 1367.73 505.712C1355.2 530.763 1345.34 557.065 1338.32 584.181C1330.68 614.304 1324.93 644.875 1321.11 675.715C1316.57 709.825 1313.62 741.588 1312.27 771.004C1310.91 800.42 1310.21 832.444 1310.15 867.076C1310.15 900.091 1310.86 930.863 1312.27 959.392C1313.67 987.922 1316.46 1019.22 1320.64 1053.27C1324.25 1083.99 1330 1114.42 1337.85 1144.34C1345.23 1171.78 1355.11 1198.49 1367.34 1224.14C1378.41 1248.19 1393.28 1270.3 1411.39 1289.62C1429.28 1307.71 1450.54 1322.12 1473.98 1332.02C1527.52 1353.82 1587.46 1353.82 1641.01 1332.02V1331.71Z" fill="#263238"/>
<path d="M2704.13 1446.32C2695.85 1439.72 2689.26 1431.25 2684.88 1421.61C2680.5 1411.97 2678.47 1401.43 2678.94 1390.85V1205.36H2200.46C2188.77 1205.8 2177.13 1203.7 2166.32 1199.22C2155.52 1194.74 2145.81 1187.97 2137.87 1179.39C2122.22 1162.83 2113.63 1140.83 2113.93 1118.05C2113.87 1099.54 2119.31 1081.43 2129.58 1066.02L2587.87 345.801C2621.98 292.653 2667.59 266.08 2724.71 266.08C2755.54 264.919 2785.68 275.422 2809.12 295.496C2831.5 315.054 2842.68 344.131 2842.68 382.727V1082.84H2964.42C2972.82 1082.34 2981.24 1083.69 2989.07 1086.8C2996.9 1089.91 3003.94 1094.7 3009.71 1100.84C3020.01 1112.9 3025.66 1128.24 3025.66 1144.1C3025.66 1159.96 3020.01 1175.3 3009.71 1187.37C3003.94 1193.5 2996.9 1198.3 2989.07 1201.41C2981.24 1204.52 2972.82 1205.87 2964.42 1205.36H2841.74V1390.85C2842.25 1401.35 2840.32 1411.82 2836.1 1421.45C2831.88 1431.07 2825.48 1439.58 2817.41 1446.32C2801.67 1459.52 2781.71 1466.66 2761.16 1466.43C2740.39 1466.59 2720.21 1459.48 2704.13 1446.32ZM2678.94 1082.84V438.195L2277.68 1082.84H2678.94Z" fill="#263238"/>
<path d="M1213.53 1126.34C1213.53 1126.34 1131.78 1241.19 1120.12 1358C1108.46 1474.8 1122.08 1552.64 1157.13 1581.9C1192.17 1611.16 1227.14 1599.43 1246.63 1572.12C1266.11 1544.82 1234.97 1449.45 1234.97 1449.45C1234.97 1449.45 1268.06 1358 1318.68 1293.77C1369.3 1229.53 1379 1219.76 1379 1219.76C1379 1219.76 1291.38 1120.48 1213.53 1126.34Z" fill="white"/>
<mask id="mask3_8_291" style="mask-type:luminance" maskUnits="userSpaceOnUse" x="1116" y="1126" width="263" height="473">
<path d="M1213.53 1126.34C1213.53 1126.34 1131.78 1241.19 1120.12 1357.99C1108.46 1474.8 1122.07 1552.64 1157.12 1581.9C1192.17 1611.16 1227.14 1599.43 1246.62 1572.12C1266.1 1544.82 1234.97 1449.45 1234.97 1449.45C1234.97 1449.45 1268.06 1357.99 1318.68 1293.76C1369.29 1229.53 1379 1219.76 1379 1219.76C1379 1219.76 1291.37 1120.48 1213.53 1126.34Z" fill="white"/>
</mask>
<g mask="url(#mask3_8_291)">
<path d="M1213.53 1126.34C1195.69 1152.7 1179.87 1180.37 1166.2 1209.12C1205.32 1224.76 1265.95 1256.84 1304.44 1313.64C1309.13 1306.83 1313.98 1300.1 1318.99 1293.76C1369.61 1229.53 1379.31 1219.76 1379.31 1219.76C1379.31 1219.76 1291.37 1120.48 1213.53 1126.34Z" fill="#92E3A9"/>
<path opacity="0.5" d="M1213.53 1126.34C1195.69 1152.7 1179.87 1180.37 1166.2 1209.12C1205.32 1224.76 1265.95 1256.84 1304.44 1313.64C1309.13 1306.83 1313.98 1300.1 1318.99 1293.76C1369.61 1229.53 1379.31 1219.76 1379.31 1219.76C1379.31 1219.76 1291.37 1120.48 1213.53 1126.34Z" fill="white"/>
</g>
<path d="M1213.53 1126.34C1213.53 1126.34 1131.78 1241.19 1120.12 1358C1108.46 1474.8 1122.08 1552.64 1157.13 1581.9C1192.17 1611.16 1227.14 1599.43 1246.63 1572.12C1266.11 1544.82 1234.97 1449.45 1234.97 1449.45C1234.97 1449.45 1268.06 1358 1318.68 1293.77C1369.3 1229.53 1379 1219.76 1379 1219.76C1379 1219.76 1291.38 1120.48 1213.53 1126.34Z" stroke="#263238" stroke-width="1.1133" stroke-linecap="round" stroke-linejoin="round"/>
<path d="M1157.13 1581.9C1147.57 1556.38 1142.93 1529.28 1143.44 1502.03" stroke="#263238" stroke-width="1.1133" stroke-linecap="round" stroke-linejoin="round"/>
<path d="M1209.62 1593.56C1209.62 1593.56 1190.22 1560.47 1188.27 1503.98" stroke="#263238" stroke-width="1.1133" stroke-linecap="round" stroke-linejoin="round"/>
<path d="M1238.88 1334.6C1238.88 1314.11 1199.76 1274.05 1145.39 1256.37C1138.08 1275.43 1132.04 1294.95 1127.32 1314.81C1148.44 1318.43 1168.96 1324.98 1188.26 1334.29C1217.44 1350.17 1238.88 1358 1238.88 1334.6Z" fill="#92E3A9" stroke="#263238" stroke-width="1.1133" stroke-linecap="round" stroke-linejoin="round"/>
<path d="M1208.77 1133.31C1196.16 1152.53 1184.56 1172.4 1174.03 1192.84C1190.5 1197.2 1206.29 1203.78 1220.97 1212.4C1281.29 1247.37 1292.95 1251.52 1273.55 1200.67C1261.81 1168.75 1233.8 1147.08 1208.77 1133.31Z" fill="#92E3A9" stroke="#263238" stroke-width="1.1133" stroke-linecap="round" stroke-linejoin="round"/>
<path d="M1853.88 1069.62C1853.88 1069.62 1946.51 1175.87 1969.59 1291.03C1992.67 1406.19 1986.8 1484.97 1954.72 1517.44C1922.65 1549.9 1886.74 1541.77 1864.68 1516.5C1842.61 1491.23 1864.68 1393.36 1864.68 1393.36C1864.68 1393.36 1822.74 1305.5 1766.1 1246.51C1709.46 1187.52 1698.74 1178.84 1698.74 1178.84C1698.74 1178.84 1775.8 1071.42 1853.88 1069.62Z" fill="white"/>
<mask id="mask4_8_291" style="mask-type:luminance" maskUnits="userSpaceOnUse" x="1698" y="1069" width="286" height="470">
<path d="M1853.88 1069.63C1853.88 1069.63 1946.51 1175.87 1969.59 1291.03C1992.67 1406.19 1986.8 1484.97 1954.72 1517.44C1922.65 1549.91 1886.74 1541.77 1864.68 1516.5C1842.61 1491.23 1864.68 1393.36 1864.68 1393.36C1864.68 1393.36 1822.74 1305.5 1766.1 1246.51C1709.46 1187.52 1698.74 1178.84 1698.74 1178.84C1698.74 1178.84 1775.8 1071.42 1853.88 1069.63Z" fill="white"/>
</mask>
<g mask="url(#mask4_8_291)">
<path d="M1853.88 1069.63C1775.64 1071.42 1698.35 1179.15 1698.35 1179.15C1698.35 1179.15 1708.99 1187.92 1765.71 1246.83C1776.31 1258 1786.29 1269.75 1795.59 1282.03C1825.2 1232.03 1867.49 1190.73 1918.19 1162.33C1899.53 1129.59 1878.01 1098.57 1853.88 1069.63Z" fill="#92E3A9"/>
<path opacity="0.5" d="M1853.88 1069.63C1775.64 1071.42 1698.35 1179.15 1698.35 1179.15C1698.35 1179.15 1708.99 1187.92 1765.71 1246.83C1776.31 1258 1786.29 1269.75 1795.59 1282.03C1825.2 1232.03 1867.49 1190.73 1918.19 1162.33C1899.53 1129.59 1878.01 1098.57 1853.88 1069.63Z" fill="white"/>
</g>
<path d="M1853.88 1069.62C1853.88 1069.62 1946.51 1175.87 1969.59 1291.03C1992.67 1406.19 1986.8 1484.97 1954.72 1517.44C1922.65 1549.9 1886.74 1541.77 1864.68 1516.5C1842.61 1491.23 1864.68 1393.36 1864.68 1393.36C1864.68 1393.36 1822.74 1305.5 1766.1 1246.51C1709.46 1187.52 1698.74 1178.84 1698.74 1178.84C1698.74 1178.84 1775.8 1071.42 1853.88 1069.62Z" stroke="#263238" stroke-width="1.1133" stroke-linecap="round" stroke-linejoin="round"/>
<path d="M1954.73 1517.44C1961.74 1491.13 1963.71 1463.74 1960.52 1436.7" stroke="#263238" stroke-width="1.1133" stroke-linecap="round" stroke-linejoin="round"/>
<path d="M1903.56 1534.18C1903.56 1534.18 1919.76 1499.36 1916.16 1442.96" stroke="#263238" stroke-width="1.1133" stroke-linecap="round" stroke-linejoin="round"/>
<path d="M1849.11 1279.37C1847.15 1258.95 1882.12 1215.3 1934.54 1192.69C1943.61 1210.92 1951.45 1229.74 1958.01 1249.02C1937.38 1254.77 1917.64 1263.32 1899.33 1274.44C1871.95 1292.83 1851.46 1302.37 1849.11 1279.37Z" fill="#92E3A9" stroke="#263238" stroke-width="1.1133" stroke-linecap="round" stroke-linejoin="round"/>
<path d="M1859.28 1076.12C1873.67 1093.87 1887.1 1112.39 1899.5 1131.59C1883.48 1137.51 1868.35 1145.59 1854.51 1155.6C1797.95 1196.44 1786.68 1201.45 1801.08 1149.19C1810.07 1116.56 1835.73 1092.23 1859.28 1076.12Z" fill="#92E3A9" stroke="#263238" stroke-width="1.1133" stroke-linecap="round" stroke-linejoin="round"/>
<path d="M1205.87 1026.99C1205.87 1026.99 1181.78 1108.27 1190.85 1141.36C1199.93 1174.46 1242.02 1144.42 1284.18 1180.48C1326.35 1216.55 1365.39 1281.64 1525.07 1293.69C1684.74 1305.73 1781.13 1219.6 1814.53 1171.41C1847.94 1123.21 1844.65 1066.02 1901.84 1063.05C1959.03 1060.08 1910.92 948.595 1892.85 930.523C1892.85 930.523 2004.25 764.901 2004.25 722.733C2004.25 680.565 1898.87 689.562 1769.55 728.757C1769.55 728.757 1673.16 677.513 1498.47 707.634C1323.77 737.754 1272.61 788.997 1272.61 788.997C1272.61 788.997 1055.74 816.066 1040.72 843.135C1025.7 870.204 1070.37 984.818 1205.87 1026.99Z" fill="white"/>
<mask id="mask5_8_291" style="mask-type:luminance" maskUnits="userSpaceOnUse" x="1037" y="694" width="968" height="601">
<path d="M1205.87 1026.99C1205.87 1026.99 1181.78 1108.27 1190.85 1141.36C1199.93 1174.46 1242.02 1144.42 1284.19 1180.48C1326.35 1216.55 1365.39 1281.64 1525.07 1293.69C1684.74 1305.73 1781.13 1219.6 1814.54 1171.41C1847.94 1123.21 1844.66 1066.03 1901.84 1063.05C1959.03 1060.08 1910.92 948.596 1892.85 930.523C1892.85 930.523 2004.25 764.902 2004.25 722.733C2004.25 680.565 1898.87 689.562 1769.55 728.757C1769.55 728.757 1673.17 677.514 1498.47 707.634C1323.77 737.754 1272.61 788.998 1272.61 788.998C1272.61 788.998 1055.74 816.067 1040.72 843.136C1025.7 870.205 1070.37 984.818 1205.87 1026.99Z" fill="white"/>
</mask>
<g mask="url(#mask5_8_291)">
<path d="M1901.61 1063.13C1958.88 1060.08 1910.69 948.675 1892.61 930.603C1892.61 930.603 1913.81 899.309 1937.68 860.192C1872.98 826.395 1809.45 807.619 1792.55 826.63C1756.17 867.468 1775.97 945.702 1792.55 1022.22C1809.14 1098.73 1742.87 1131.35 1696.56 1197.54C1650.24 1263.72 1584.14 1190.89 1584.14 1190.89C1560.67 1286.88 1461.7 1223.98 1461.7 1223.98C1385.66 1200.51 1256.65 1124.78 1283.09 1071.82C1309.53 1018.85 1316.18 969.25 1269.87 926.3C1223.55 883.349 1038.84 847.596 1038.84 847.596C1029.14 880.22 1076 987.088 1205.95 1027.53C1205.95 1027.53 1181.86 1108.82 1190.93 1141.91C1200.01 1175.01 1242.1 1144.96 1284.26 1181.03C1326.43 1217.1 1365.47 1282.19 1525.15 1294.24C1684.82 1306.28 1781.21 1220.15 1814.61 1171.96C1848.02 1123.76 1844.34 1066.1 1901.61 1063.13Z" fill="#92E3A9"/>
<path opacity="0.5" d="M1901.61 1063.13C1958.88 1060.08 1910.69 948.675 1892.61 930.603C1892.61 930.603 1913.81 899.309 1937.68 860.192C1872.98 826.395 1809.45 807.619 1792.55 826.63C1756.17 867.468 1775.97 945.702 1792.55 1022.22C1809.14 1098.73 1742.87 1131.35 1696.56 1197.54C1650.24 1263.72 1584.14 1190.89 1584.14 1190.89C1560.67 1286.88 1461.7 1223.98 1461.7 1223.98C1385.66 1200.51 1256.65 1124.78 1283.09 1071.82C1309.53 1018.85 1316.18 969.25 1269.87 926.3C1223.55 883.349 1038.84 847.596 1038.84 847.596C1029.14 880.22 1076 987.088 1205.95 1027.53C1205.95 1027.53 1181.86 1108.82 1190.93 1141.91C1200.01 1175.01 1242.1 1144.96 1284.26 1181.03C1326.43 1217.1 1365.47 1282.19 1525.15 1294.24C1684.82 1306.28 1781.21 1220.15 1814.61 1171.96C1848.02 1123.76 1844.34 1066.1 1901.61 1063.13Z" fill="white"/>
<path d="M1666.05 1081.28C1668.32 1100.37 1625.91 1120.95 1571.54 1127.28C1517.17 1133.62 1471.17 1123.29 1468.9 1103.81C1466.63 1084.33 1509.03 1064.23 1563.48 1057.89C1617.93 1051.55 1663.86 1062.27 1666.05 1081.28Z" fill="#92E3A9"/>
<path opacity="0.5" d="M1666.05 1081.28C1668.32 1100.37 1625.91 1120.95 1571.54 1127.28C1517.17 1133.62 1471.17 1123.29 1468.9 1103.81C1466.63 1084.33 1509.03 1064.23 1563.48 1057.89C1617.93 1051.55 1663.86 1062.27 1666.05 1081.28Z" fill="white"/>
</g>
<path d="M1205.87 1026.99C1205.87 1026.99 1181.78 1108.27 1190.85 1141.36C1199.93 1174.46 1242.02 1144.42 1284.18 1180.48C1326.35 1216.55 1365.39 1281.64 1525.07 1293.69C1684.74 1305.73 1781.13 1219.6 1814.53 1171.41C1847.94 1123.21 1844.65 1066.02 1901.84 1063.05C1959.03 1060.08 1910.92 948.595 1892.85 930.523C1892.85 930.523 2004.25 764.901 2004.25 722.733C2004.25 680.565 1898.87 689.562 1769.55 728.757C1769.55 728.757 1673.16 677.513 1498.47 707.634C1323.77 737.754 1272.61 788.997 1272.61 788.997C1272.61 788.997 1055.74 816.066 1040.72 843.135C1025.7 870.204 1070.37 984.818 1205.87 1026.99Z" stroke="#263238" stroke-width="1.1133" stroke-miterlimit="10"/>
<path d="M1828.77 786.025C1750.54 838.598 1778.15 891.172 1813.12 920.353C1834.48 938.191 1868.9 936 1892.45 930.993C1892.45 930.993 2003.86 765.371 2003.86 723.203C2003.94 722.812 1906.61 733.06 1828.77 786.025Z" fill="#92E3A9" stroke="#263238" stroke-width="1.1133" stroke-miterlimit="10"/>
<path d="M1038.76 847.048C1029.06 879.671 1075.93 986.539 1205.87 1026.99C1205.87 1026.99 1305.07 1017.29 1271.98 937.486C1241.08 863.007 1084.84 844.466 1038.76 847.048Z" fill="#92E3A9" stroke="#263238" stroke-width="1.1133" stroke-miterlimit="10"/>
<path d="M1498 707.792C1487.75 709.591 1477.89 711.469 1468.42 713.346C1484.07 792.363 1509.81 923.953 1532.81 923.953C1555.81 923.953 1573.41 779.689 1580.92 698.873C1553.12 700.044 1525.42 703.023 1498 707.792Z" fill="#92E3A9" stroke="#263238" stroke-width="1.1133" stroke-miterlimit="10"/>
<path d="M1408.26 900.481C1432.2 886.399 1428.6 780.548 1424.77 723.124C1400.06 729.263 1375.74 736.865 1351.93 745.89C1360.62 799.637 1382.68 915.502 1408.26 900.481Z" fill="#92E3A9" stroke="#263238" stroke-width="1.1133" stroke-miterlimit="10"/>
<path d="M1639.91 851.82C1664.4 860.426 1678.17 772.413 1685.92 704.662C1661.19 700.631 1636.18 698.512 1611.12 698.325C1610.34 753.949 1613.39 842.51 1639.91 851.82Z" fill="#92E3A9" stroke="#263238" stroke-width="1.1133" stroke-miterlimit="10"/>
<path d="M1607.13 1156.46C1584.28 1150.46 1560 1153.45 1539.3 1164.83C1538.39 1165.36 1537.62 1166.09 1537.05 1166.96C1536.47 1167.84 1536.11 1168.84 1535.98 1169.88C1535.86 1170.92 1535.99 1171.98 1536.35 1172.96C1536.7 1173.95 1537.29 1174.83 1538.05 1175.55L1579.59 1214.67C1580.37 1215.4 1581.31 1215.93 1582.34 1216.23C1583.36 1216.52 1584.44 1216.57 1585.49 1216.36C1586.54 1216.15 1587.52 1215.7 1588.36 1215.04C1589.2 1214.38 1589.87 1213.53 1590.31 1212.56L1611.59 1165.62C1611.97 1164.73 1612.15 1163.77 1612.13 1162.8C1612.11 1161.84 1611.88 1160.89 1611.45 1160.02C1611.03 1159.15 1610.43 1158.38 1609.68 1157.77C1608.93 1157.16 1608.06 1156.71 1607.13 1156.46Z" fill="#92E3A9" stroke="#263238" stroke-width="1.1133" stroke-linecap="round" stroke-linejoin="round"/>
<path d="M1508.4 1091.14C1514.12 1106.24 1511.85 1121.1 1503.32 1124.31C1494.79 1127.52 1483.21 1117.97 1477.42 1102.95C1471.63 1087.93 1473.98 1072.99 1482.51 1069.78C1491.04 1066.57 1502.62 1076.12 1508.4 1091.14Z" fill="#263238"/>
<path d="M1621.68 1080.42C1618.71 1096.07 1623.56 1110.54 1632.56 1112.18C1641.55 1113.83 1651.26 1102.4 1654.23 1086.52C1657.2 1070.64 1652.35 1056.48 1643.35 1054.76C1634.36 1053.04 1624.66 1064.62 1621.68 1080.42Z" fill="#263238"/>
<path d="M1590.31 1212.48C1590.31 1212.48 1534.77 1287.9 1484.15 1212.01" stroke="#263238" stroke-width="1.1133" stroke-linecap="round" stroke-linejoin="round"/>
<path d="M1579.6 1214.59C1579.6 1214.59 1616.52 1252.85 1655.48 1231.41C1694.44 1209.98 1671.13 1176.65 1671.13 1176.65" stroke="#263238" stroke-width="1.1133" stroke-linecap="round" stroke-linejoin="round"/>
<path d="M1410.21 1030.9C1410.21 1030.9 1423.83 982.236 1488.06 993.893" stroke="#263238" stroke-width="3.33991" stroke-linecap="round" stroke-linejoin="round"/>
<path d="M1604.86 986.147C1604.86 986.147 1653.52 956.966 1698.27 1003.67" stroke="#263238" stroke-width="3.33991" stroke-linecap="round" stroke-linejoin="round"/>
<path d="M1373.21 1161.39L1419.91 1173.05" stroke="#263238" stroke-width="1.1133" stroke-miterlimit="10" stroke-linecap="round"/>
<path d="M1414.05 1190.57L1373.21 1198.32" stroke="#263238" stroke-width="1.1133" stroke-miterlimit="10" stroke-linecap="round"/>
<path d="M1421.87 1212.01L1392.69 1227.58" stroke="#263238" stroke-width="1.1133" stroke-miterlimit="10" stroke-linecap="round"/>
<path d="M1717.76 1139.96L1758.67 1130.18" stroke="#263238" stroke-width="1.1133" stroke-miterlimit="10" stroke-linecap="round"/>
<path d="M1725.57 1159.44H1752.8" stroke="#263238" stroke-width="1.1133" stroke-miterlimit="10" stroke-linecap="round"/>
<path d="M1731.37 1178.92L1768.37 1188.62" stroke="#263238" stroke-width="1.1133" stroke-miterlimit="10" stroke-linecap="round"/>
</svg>
